<?xml version="1.0" encoding="utf-8"?>
<!-- Generator: Adobe Illustrator 16.0.0, SVG Export Plug-In . SVG Version: 6.00 Build 0)  -->
<!DOCTYPE svg PUBLIC "-//W3C//DTD SVG 1.1//EN" "http://www.w3.org/Graphics/SVG/1.1/DTD/svg11.dtd">
<svg version="1.1" id="Calque_1" xmlns="http://www.w3.org/2000/svg" xmlns:xlink="http://www.w3.org/1999/xlink" x="0px" y="0px"
	 width="841.89px" height="595.28px" viewBox="0 0 841.89 595.28" enable-background="new 0 0 841.89 595.28" xml:space="preserve">
<g id="XMLID_2_">
	<g>
		<polygon fill="#F7F3EF" points="345.939,209.845 379.66,268.254 345.939,326.675 278.49,326.675 244.76,268.254 278.49,209.845 		
			"/>
	</g>
	<g>
	</g>
</g>
<g id="XMLID_6_">
	<g>
		<polygon fill="#EFE0DB" points="447.519,151.43 481.238,209.839 447.519,268.259 380.068,268.259 346.338,209.839 380.068,151.43 
					"/>
	</g>
	<g>
		<polygon fill="none" stroke="#000000" stroke-miterlimit="10" points="380.068,268.259 346.338,209.839 380.068,151.43 
			447.519,151.43 481.238,209.839 447.519,268.259 		"/>
	</g>
</g>
<g id="XMLID_5_">
	<g>
		<polygon fill="#282627" points="548.098,209.844 581.817,268.254 548.098,326.674 480.647,326.674 446.918,268.254 
			480.647,209.844 		"/>
	</g>
	<g>
		<polygon fill="none" stroke="#000000" stroke-miterlimit="10" points="480.647,326.674 446.918,268.254 480.647,209.844 
			548.098,209.844 581.817,268.254 548.098,326.674 		"/>
	</g>
</g>
<g id="XMLID_9_">
	<g>
		<polygon fill="#EFE0DB" points="345.939,326.674 379.66,385.084 345.939,443.504 278.49,443.504 244.76,385.084 278.49,326.674 		
			"/>
	</g>
	<g>
	</g>
</g>
<g id="XMLID_8_">
	<g>
		<polygon fill="#282627" points="446.52,385.089 480.239,443.499 446.52,501.919 379.069,501.919 345.339,443.499 379.069,385.089 
					"/>
	</g>
	<g>
	</g>
</g>
<g id="XMLID_7_">
	<g>
		<polygon fill="#696261" points="446.52,268.261 480.239,326.671 446.52,385.091 379.069,385.091 345.339,326.671 379.069,268.261 
					"/>
	</g>
	<g>
		<polygon fill="none" stroke="#000000" stroke-miterlimit="10" points="379.069,385.091 345.339,326.671 379.069,268.261 
			446.52,268.261 480.239,326.671 446.52,385.091 		"/>
	</g>
</g>
<g id="XMLID_12_">
	<g>
		<polygon fill="#F7F3EF" points="548.099,326.675 581.818,385.085 548.099,443.505 480.648,443.505 446.918,385.085 
			480.648,326.675 		"/>
	</g>
	<g>
		<polygon fill="none" stroke="#000000" stroke-miterlimit="10" points="480.648,443.505 446.918,385.085 480.648,326.675 
			548.099,326.675 581.818,385.085 548.099,443.505 		"/>
	</g>
</g>
<g id="XMLID_11_">
	<g>
		<polygon fill="#A48A7B" points="648.678,385.09 682.397,443.5 648.678,501.92 581.228,501.92 547.498,443.5 581.228,385.09 		"/>
	</g>
	<g>
		<polygon fill="none" stroke="#000000" stroke-miterlimit="10" points="581.228,501.92 547.498,443.5 581.228,385.09 
			648.678,385.09 682.397,443.5 648.678,501.92 		"/>
	</g>
</g>
<g id="XMLID_10_">
	<g>
		<polygon fill="#4D4B4B" points="648.678,268.261 682.397,326.671 648.678,385.091 581.228,385.091 547.498,326.671 
			581.228,268.261 		"/>
	</g>
	<g>
		<polygon fill="none" stroke="#000000" stroke-miterlimit="10" points="581.228,385.091 547.498,326.671 581.228,268.261 
			648.678,268.261 682.397,326.671 648.678,385.091 		"/>
	</g>
</g>
<g id="XMLID_18_">
	<g>
		<polygon fill="#CFC9C2" points="648.679,151.429 682.398,209.839 648.679,268.259 581.229,268.259 547.498,209.839 
			581.229,151.429 		"/>
	</g>
	<g>
	</g>
</g>
<g id="XMLID_17_">
	<g>
		<polygon fill="#A48A7B" points="749.258,209.846 782.978,268.255 749.258,326.676 681.808,326.676 648.078,268.255 
			681.808,209.846 		"/>
	</g>
	<g>
		<polygon fill="none" stroke="#000000" stroke-miterlimit="10" points="681.808,326.676 648.078,268.255 681.808,209.846 
			749.258,209.846 782.978,268.255 749.258,326.676 		"/>
	</g>
</g>
<rect x="275.363" y="259.368" transform="matrix(1 -0.0014 0.0014 1 -0.3958 0.4471)" fill="none" width="73.694" height="34.859"/>
<text transform="matrix(1 0 0 1 275.3687 280.6157)" font-family="'MyriadPro-Regular'" font-size="30">HTML</text>
<text transform="matrix(1 0 0 1 379.6597 222.4731)" font-family="'MyriadPro-Regular'" font-size="37">PHP</text>
<text transform="matrix(1 0 0 1 360.0527 334.0518)" font-family="'MyriadPro-Regular'" font-size="26">Javascript</text>
<text transform="matrix(1 0 0 1 257.9473 394.0537)" font-family="'MyriadPro-Regular'" font-size="27">Illustrator</text>
<text transform="matrix(1 0 0 1 481.2383 394.0537)" font-family="'MyriadPro-Regular'" font-size="30">TWIG</text>
<text transform="matrix(1 0 0 1 461.1055 276.7979)" fill="#FFFFFF" font-family="'MyriadPro-Regular'" font-size="23">Photoshop</text>
<text transform="matrix(1 0 0 1 567.4209 334.0518)" font-family="'MyriadPro-Regular'" font-size="30">My SQL</text>
<text transform="matrix(1 0 0 1 567.4209 216.1582)" font-family="'MyriadPro-Regular'" font-size="23">Bootstrap</text>
<text transform="matrix(1 0 0 1 388.4736 448.79)" fill="#FFFFFF" font-family="'MyriadPro-Regular'" font-size="30">CSS</text>
<text transform="matrix(1 0 0 1 557.9473 448.79)" font-family="'MyriadPro-Regular'" font-size="25">Materialize</text>
<text transform="matrix(1 0 0 1 662.1553 276.7979)" font-family="'MyriadPro-Regular'" font-size="24">Foundation</text>
</svg>
