<?xml version="1.0" encoding="utf-8"?>
<!-- Generator: Adobe Illustrator 16.0.0, SVG Export Plug-In . SVG Version: 6.00 Build 0)  -->
<!DOCTYPE svg PUBLIC "-//W3C//DTD SVG 1.1//EN" "http://www.w3.org/Graphics/SVG/1.1/DTD/svg11.dtd">
<svg version="1.1" id="Layer_1" xmlns="http://www.w3.org/2000/svg" xmlns:xlink="http://www.w3.org/1999/xlink" x="0px" y="0px"
	 width="595.281px" height="841.891px" viewBox="0 0 595.281 841.891" enable-background="new 0 0 595.281 841.891"
	 xml:space="preserve">
<g id="XMLID_65_">
	<g>
		<defs>
			<rect id="SVGID_1_" y="212.597" width="595.281" height="416.696"/>
		</defs>
		<clipPath id="SVGID_2_">
			<use xlink:href="#SVGID_1_"  overflow="visible"/>
		</clipPath>
		<g id="XMLID_5_" clip-path="url(#SVGID_2_)">
			
				<radialGradient id="XMLID_43_" cx="699.7163" cy="350.645" r="698.8956" gradientTransform="matrix(0.4252 0 0 -0.4252 0.1206 570.0397)" gradientUnits="userSpaceOnUse">
				<stop  offset="0" style="stop-color:#4DF4C4"/>
				<stop  offset="0.2037" style="stop-color:#4AEEC6"/>
				<stop  offset="0.478" style="stop-color:#41DDCD"/>
				<stop  offset="0.791" style="stop-color:#33C1D8"/>
				<stop  offset="1" style="stop-color:#27AAE1"/>
			</radialGradient>
			<rect id="XMLID_6_" y="212.597" display="none" fill="url(#XMLID_43_)" width="595.281" height="416.696"/>
			<g id="XMLID_281_" display="none">
				<polygon id="XMLID_282_" display="inline" fill="#FFFFFF" points="283.821,41.964 297.64,420.945 311.458,41.964 				"/>
				<polygon id="XMLID_299_" display="inline" fill="#FFFFFF" points="186.195,58.462 297.64,420.945 212.898,51.318 				"/>
				<polygon id="XMLID_300_" display="inline" fill="#FFFFFF" points="96.18,99.664 297.64,420.945 120.119,85.845 				"/>
				<polygon id="XMLID_301_" display="inline" fill="#FFFFFF" points="19.899,162.764 297.64,420.945 39.458,143.204 				"/>
				<polygon id="XMLID_302_" display="inline" fill="#FFFFFF" points="-37.46,243.424 297.64,420.945 -23.641,219.485 				"/>
				<polygon id="XMLID_303_" display="inline" fill="#FFFFFF" points="-71.986,336.203 297.64,420.945 -64.843,309.5 				"/>
				<polygon id="XMLID_304_" display="inline" fill="#FFFFFF" points="-81.341,434.764 297.64,420.945 -81.341,407.126 				"/>
				<polygon id="XMLID_305_" display="inline" fill="#FFFFFF" points="-64.843,532.39 297.64,420.945 -71.986,505.688 				"/>
				<polygon id="XMLID_306_" display="inline" fill="#FFFFFF" points="-23.641,622.405 297.64,420.945 -37.46,598.466 				"/>
				<polygon id="XMLID_307_" display="inline" fill="#FFFFFF" points="39.458,698.686 297.64,420.945 19.899,679.127 				"/>
				<polygon id="XMLID_308_" display="inline" fill="#FFFFFF" points="120.119,756.045 297.64,420.945 96.18,742.227 				"/>
				<polygon id="XMLID_309_" display="inline" fill="#FFFFFF" points="212.898,790.571 297.64,420.945 186.195,783.429 				"/>
				<polygon id="XMLID_310_" display="inline" fill="#FFFFFF" points="311.458,799.926 297.64,420.945 283.821,799.926 				"/>
				<polygon id="XMLID_311_" display="inline" fill="#FFFFFF" points="409.085,783.429 297.64,420.945 382.382,790.571 				"/>
				<polygon id="XMLID_312_" display="inline" fill="#FFFFFF" points="499.099,742.227 297.64,420.945 475.162,756.045 				"/>
				<polygon id="XMLID_313_" display="inline" fill="#FFFFFF" points="575.38,679.127 297.64,420.945 555.822,698.686 				"/>
				<polygon id="XMLID_314_" display="inline" fill="#FFFFFF" points="632.74,598.466 297.64,420.945 618.921,622.405 				"/>
				<polygon id="XMLID_315_" display="inline" fill="#FFFFFF" points="667.267,505.688 297.64,420.945 660.123,532.39 				"/>
				<polygon id="XMLID_316_" display="inline" fill="#FFFFFF" points="676.621,407.126 297.64,420.945 676.621,434.764 				"/>
				<polygon id="XMLID_317_" display="inline" fill="#FFFFFF" points="660.123,309.5 297.64,420.945 667.267,336.203 				"/>
				<polygon id="XMLID_318_" display="inline" fill="#FFFFFF" points="618.921,219.485 297.64,420.945 632.74,243.424 				"/>
				<polygon id="XMLID_319_" display="inline" fill="#FFFFFF" points="555.822,143.204 297.64,420.945 575.38,162.764 				"/>
				<polygon id="XMLID_320_" display="inline" fill="#FFFFFF" points="475.162,85.845 297.64,420.945 499.099,99.664 				"/>
				<polygon id="XMLID_321_" display="inline" fill="#FFFFFF" points="382.382,51.318 297.64,420.945 409.085,58.462 				"/>
			</g>
			<polygon id="XMLID_277_" display="none" fill="#FFFFFF" points="396.074,424.857 440.38,420.945 434.554,420.435 
				465.765,419.457 399.859,417.374 381.064,415.715 465.212,406.361 381.617,410.4 396.16,406.361 463.638,393.307 
				425.201,398.282 438,394.753 394.458,398.962 461.044,380.423 370.902,399.6 457.388,367.752 397.605,385.653 430.771,369.368 
				409.085,375.661 452.71,355.422 377.025,384.973 370.519,386.887 447.056,343.559 375.281,378.468 405.429,355.89 
				440.464,332.163 408.193,351.212 374.644,368.178 432.982,321.363 357.679,374.428 424.691,311.201 385.998,343.389 
				403.132,324.765 376.345,345.217 415.591,301.719 352.492,363.416 350.791,364.691 405.769,293.002 358.316,347.471 
				383.701,307.034 374.601,317.111 395.265,285.136 358.443,334.97 346.41,348.278 384.167,278.078 337.779,352.786 
				343.732,337.691 372.517,271.955 360.23,295.894 361.292,293.172 338.501,330.335 360.4,266.768 325.066,351.893 
				347.898,262.601 330.21,317.451 336.673,283.605 326.341,310.861 335.101,259.454 317.625,333.779 314.648,341.518 
				322.132,257.371 310.566,333.524 310.779,278.801 308.781,289.898 309.035,256.35 305.294,309.075 301.296,331.186 
				295.939,256.35 296.705,346.152 294.621,334.544 282.886,257.371 285.012,281.692 284.501,278.801 284.671,322.299 
				269.875,259.454 284.799,346.578 284.799,348.363 257.076,262.601 270.427,314.772 258.607,283.605 264.602,314.985 
				244.575,266.768 268.939,337.436 270.598,346.11 232.5,271.955 261.243,337.648 233.988,293.172 240.578,309.883 
				220.849,278.078 247.849,328.294 254.95,346.322 209.751,285.094 254.822,354.869 211.58,307.034 211.962,307.629 
				199.249,293.002 218.808,318.514 238.112,349.341 189.427,301.719 250.188,369.071 246.276,366.094 180.328,311.201 
				205.499,334.97 192.148,324.765 220.381,355.464 171.994,321.363 237.049,373.535 239.94,376.724 164.552,332.163 
				208.943,362.268 176.288,345.77 201.885,364.946 157.962,343.559 221.062,379.275 229.438,385.568 152.307,355.422 
				212.26,383.23 164.51,369.368 182.496,378.212 147.629,367.752 202.055,387.779 219.956,396.581 143.973,380.423 
				215.747,400.408 157.282,394.753 161.576,395.943 141.336,393.307 176.841,400.195 211.58,409.847 139.763,406.361 
				219.616,415.248 189.979,417.841 139.253,419.457 163.277,420.222 154.9,420.945 204.649,425.324 139.763,432.553 
				224.633,428.429 212.26,431.873 141.336,445.606 181.73,440.334 157.282,447.138 199.292,443.056 143.973,458.49 
				230.628,440.036 230.671,440.036 226.334,442.12 147.629,471.161 198.101,456.024 164.51,472.521 194.997,463.678 
				152.307,483.449 226.376,454.536 233.86,452.367 157.962,495.355 213.323,468.397 176.288,496.12 191.638,488.382 
				164.552,506.75 219.318,474.351 236.836,465.506 171.994,517.551 228.205,477.922 196.23,512.703 180.328,527.713 
				202.906,508.919 241.514,479.452 189.427,537.195 242.959,484.811 229.098,506.921 199.249,545.869 218.638,523.589 
				211.58,534.856 248.019,494.547 209.709,553.777 257.501,489.147 252.229,502.413 220.849,560.836 243.81,523.801 
				233.988,548.718 256.651,511.726 232.457,566.959 271.49,491.018 270.215,497.693 244.575,572.104 265.665,521.335 
				258.607,558.285 268.089,533.283 257.076,576.271 284.799,490.508 284.799,492.251 269.875,579.417 284.714,516.572 
				284.501,563.09 284.501,563.09 282.886,581.543 291.772,522.95 296.662,495.908 295.939,582.563 301.126,509.854 
				305.634,534.729 309.035,582.563 308.781,552.162 310.779,563.09 310.523,505.263 322.132,581.543 314.988,501.266 
				319.453,512.958 335.101,579.417 327.234,533.453 336.673,558.285 328.765,517.083 347.898,576.271 326.214,491.443 
				328.382,495.015 360.4,572.104 340.882,515.382 361.292,548.718 355.169,533.198 372.517,566.959 335.568,482.514 
				384.167,560.836 350.365,497.991 370.519,520.271 395.265,553.777 381.363,532.263 383.701,534.856 351.64,483.747 
				405.769,545.911 356.318,481.408 366.396,489.104 415.591,537.195 384.976,503.264 403.132,517.125 374.261,485.746 
				424.691,527.713 359.208,465.889 360.996,466.824 432.982,517.551 384.679,478.772 418.992,496.12 405.896,486.341 
				440.464,506.75 364.183,455.004 447.056,495.355 381.363,458.192 406.917,465.591 452.71,483.449 426.306,471.246 
				430.771,472.521 382,448.583 457.388,471.161 375.835,441.1 382.468,441.737 461.044,458.49 410.871,444.501 438,447.138 
				405.046,437.996 463.638,445.606 373.199,428.089 465.212,432.553 			"/>
			<polygon id="XMLID_278_" display="none" fill="#FFFFFF" points="359.72,422.73 386.804,420.35 383.234,420.052 402.324,419.457 
				362.015,418.181 350.535,417.161 401.984,411.463 350.875,413.929 359.761,411.463 401.005,403.469 377.535,406.531 
				385.316,404.362 358.699,406.914 399.433,395.603 344.328,407.339 397.179,387.864 360.613,398.792 380.937,388.842 
				367.671,392.669 394.332,380.296 348.07,398.367 344.072,399.515 390.886,373.025 347.005,394.413 365.417,380.594 
				386.847,366.094 367.119,377.745 346.623,388.12 382.298,359.461 336.248,391.946 377.195,353.253 353.554,372.94 
				364.013,361.587 347.644,374.045 371.625,347.471 333.06,385.186 332.039,385.994 365.63,342.155 336.63,375.449 352.15,350.745 
				346.582,356.867 359.208,337.308 336.716,367.795 329.361,375.959 352.449,333.014 324.087,378.68 327.703,369.453 
				345.304,329.272 337.779,343.899 338.458,342.241 324.513,364.946 337.906,326.125 316.306,378.17 330.253,323.574 
				319.453,357.08 323.408,336.415 317.072,353.083 322.429,321.661 311.757,367.072 309.929,371.792 314.478,320.385 
				307.419,366.945 307.546,333.481 306.314,340.242 306.484,319.748 304.189,351.978 301.765,365.499 298.49,319.748 
				298.958,374.641 297.683,367.54 290.497,320.385 291.815,335.225 291.517,333.481 291.603,360.057 282.545,321.661 
				291.688,374.896 291.688,376.001 274.722,323.574 282.886,355.464 275.657,336.415 279.356,355.592 267.111,326.125 
				281.993,369.283 283.013,374.598 259.712,329.272 277.273,369.453 260.605,342.241 264.645,352.445 252.569,333.014 
				269.067,363.713 273.446,374.769 245.766,337.308 273.361,379.956 246.914,350.745 247.126,351.084 239.388,342.155 
				251.336,357.76 263.156,376.597 233.35,347.471 270.512,388.63 268.131,386.802 227.822,353.253 243.214,367.795 
				235.051,361.587 252.314,380.338 222.72,359.461 262.476,391.394 264.262,393.307 218.17,366.094 245.298,384.505 
				225.356,374.386 241.003,386.121 214.131,373.025 252.696,394.88 257.841,398.707 210.687,380.296 247.339,397.304 
				218.128,388.842 229.141,394.243 207.795,387.822 241.088,400.11 252.016,405.468 205.584,395.561 249.465,407.807 
				213.748,404.362 216.342,405.085 203.969,403.469 225.696,407.679 246.914,413.589 203.033,411.463 251.846,416.863 
				233.732,418.479 202.693,419.457 217.362,419.925 212.26,420.35 242.662,423.028 203.033,427.45 254.908,424.942 
				247.339,427.068 203.969,435.444 228.673,432.213 213.748,436.38 239.43,433.871 205.584,443.311 258.564,432.043 
				258.564,432.043 255.928,433.318 207.795,451.049 238.665,441.822 218.128,451.899 236.794,446.5 210.687,458.575 
				255.928,440.93 260.563,439.568 214.131,465.847 247.977,449.391 225.313,466.313 234.71,461.594 218.17,472.819 
				251.633,453.005 262.349,447.605 222.72,479.41 257.076,455.216 237.517,476.477 227.78,485.66 241.599,474.138 265.197,456.151 
				233.35,491.443 266.09,459.426 257.629,472.947 239.345,496.758 251.251,483.109 246.914,489.998 269.194,465.336 
				245.766,501.563 274.977,462.062 271.788,470.184 252.569,505.9 266.601,483.279 260.605,498.502 274.467,475.881 
				259.67,509.642 283.566,463.21 282.758,467.292 267.111,512.788 279.994,481.749 275.657,504.327 281.482,489.02 274.722,515.34 
				291.688,462.912 291.688,463.976 282.545,517.253 291.603,478.814 291.517,507.261 291.517,507.261 290.497,518.528 
				295.939,482.727 298.958,466.187 298.49,519.166 301.679,474.732 304.4,489.912 306.484,519.166 306.357,500.585 
				307.546,507.261 307.419,471.927 314.478,518.528 310.14,469.46 312.863,476.646 322.429,517.253 317.625,489.147 
				323.408,504.327 318.56,479.112 330.253,515.34 316.986,463.465 318.347,465.676 337.906,512.788 325.958,478.092 
				338.458,498.502 334.718,488.978 345.304,509.642 322.726,458.022 352.449,505.9 331.785,467.462 344.072,481.111 
				359.208,501.563 350.705,488.425 352.15,489.998 332.548,458.745 365.63,496.758 335.398,457.342 341.564,462.02 
				371.625,491.443 352.916,470.693 364.013,479.155 346.369,459.979 377.195,485.66 337.142,447.86 338.289,448.413 
				382.298,479.41 352.746,455.727 373.708,466.313 365.714,460.318 386.847,472.819 340.203,441.185 390.886,465.847 
				350.705,443.141 366.353,447.647 394.332,458.575 378.216,451.092 380.937,451.899 351.087,437.272 397.179,451.049 
				347.345,432.681 351.386,433.105 399.433,443.311 368.777,434.764 385.316,436.38 365.205,430.768 401.005,435.444 
				345.73,424.729 401.984,427.45 			"/>
			<g id="XMLID_293_">
				<g id="XMLID_48_">
					<polygon id="XMLID_47_" fill="#FFFFFF" points="142.272,481.834 144.908,486.639 150.351,485.618 146.566,489.657 
						149.203,494.462 144.228,492.124 140.444,496.12 141.124,490.678 136.149,488.297 141.592,487.276 					"/>
					<polygon id="XMLID_50_" fill="#FFFFFF" points="156.814,461.892 156.729,465.123 159.79,466.187 156.729,467.122 
						156.644,470.354 154.815,467.717 151.711,468.652 153.667,466.059 151.796,463.423 154.858,464.485 					"/>
					<polygon id="XMLID_292_" fill="#FFFFFF" points="139.678,509.685 140.911,512.661 144.143,512.448 141.634,514.531 
						142.867,517.551 140.104,515.808 137.637,517.891 138.403,514.744 135.681,513.043 138.913,512.831 					"/>
					<polygon id="XMLID_283_" fill="#FFFFFF" points="132.024,457.428 132.96,460.531 136.191,460.616 133.513,462.444 
						134.448,465.549 131.854,463.593 129.218,465.421 130.281,462.359 127.73,460.403 130.961,460.488 					"/>
					<polygon id="XMLID_284_" fill="#FFFFFF" points="159.875,481.111 160.811,484.215 164.042,484.3 161.363,486.128 
						162.299,489.232 159.705,487.276 157.069,489.104 158.132,486.043 155.581,484.087 158.813,484.172 					"/>
					<polygon id="XMLID_285_" fill="#FFFFFF" points="128.666,501.393 129.474,502.924 131.217,502.626 129.984,503.901 
						130.834,505.433 129.261,504.667 128.028,505.942 128.283,504.199 126.667,503.434 128.411,503.137 					"/>
					<polygon id="XMLID_286_" fill="#FFFFFF" points="158.642,509.43 159.45,511.003 161.193,510.662 159.96,511.938 
						160.811,513.511 159.237,512.746 158.004,513.979 158.26,512.278 156.644,511.513 158.387,511.173 					"/>
					<polygon id="XMLID_287_" fill="#FFFFFF" points="171.781,489.998 171.526,491.741 173.099,492.506 171.355,492.804 
						171.143,494.547 170.292,492.974 168.592,493.314 169.782,492.038 168.975,490.465 170.548,491.23 					"/>
					<polygon id="XMLID_289_" fill="#FFFFFF" points="127.603,478.05 127.348,479.793 128.963,480.559 127.22,480.855 
						126.965,482.6 126.157,481.025 124.414,481.366 125.646,480.091 124.796,478.56 126.37,479.325 					"/>
					<polygon id="XMLID_291_" fill="#FFFFFF" points="148.395,449.434 148.14,451.177 149.755,451.942 148.012,452.24 
						147.757,453.983 146.949,452.452 145.206,452.75 146.439,451.475 145.588,449.943 147.162,450.709 					"/>
				</g>
				<g id="XMLID_350_">
					<polygon id="XMLID_360_" fill="#FFFFFF" points="370.818,523.461 373.496,528.309 378.896,527.245 375.111,531.284 
						377.748,536.089 372.773,533.751 368.988,537.748 369.712,532.305 364.736,529.967 370.136,528.903 					"/>
					<polygon id="XMLID_359_" fill="#FFFFFF" points="385.359,503.519 385.316,506.75 388.378,507.813 385.273,508.749 
						385.232,511.98 383.361,509.344 380.257,510.279 382.212,507.729 380.341,505.05 383.404,506.112 					"/>
					<polygon id="XMLID_358_" fill="#FFFFFF" points="368.265,551.312 369.457,554.33 372.687,554.075 370.222,556.159 
						371.412,559.178 368.691,557.477 366.183,559.518 366.99,556.414 364.226,554.671 367.458,554.458 					"/>
					<polygon id="XMLID_357_" fill="#FFFFFF" points="360.613,499.055 361.505,502.158 364.736,502.243 362.058,504.114 
						362.994,507.218 360.443,505.22 357.763,507.048 358.826,504.029 356.275,502.031 359.507,502.116 					"/>
					<polygon id="XMLID_356_" fill="#FFFFFF" points="388.462,522.78 389.355,525.885 392.587,525.97 389.951,527.798 
						390.843,530.901 388.292,528.903 385.615,530.731 386.72,527.713 384.126,525.715 387.357,525.8 					"/>
					<polygon id="XMLID_355_" fill="#FFFFFF" points="357.21,543.021 358.062,544.594 359.761,544.253 358.572,545.528 
						359.378,547.102 357.806,546.337 356.574,547.569 356.828,545.869 355.255,545.104 356.957,544.764 					"/>
					<polygon id="XMLID_354_" fill="#FFFFFF" points="387.187,551.099 388.039,552.63 389.738,552.332 388.548,553.565 
						389.355,555.139 387.783,554.373 386.591,555.648 386.804,553.905 385.232,553.14 386.974,552.8 					"/>
					<polygon id="XMLID_353_" fill="#FFFFFF" points="400.326,531.625 400.072,533.368 401.644,534.134 399.943,534.431 
						399.689,536.175 398.88,534.644 397.136,534.941 398.371,533.666 397.519,532.135 399.093,532.9 					"/>
					<polygon id="XMLID_352_" fill="#FFFFFF" points="356.191,519.677 355.935,521.42 357.509,522.186 355.765,522.482 
						355.552,524.227 354.703,522.695 353.001,522.993 354.191,521.718 353.384,520.187 354.957,520.952 					"/>
					<polygon id="XMLID_351_" fill="#FFFFFF" points="376.941,491.061 376.728,492.804 378.3,493.569 376.558,493.867 
						376.345,495.61 375.494,494.079 373.751,494.377 374.984,493.102 374.175,491.571 375.75,492.336 					"/>
				</g>
				<g id="XMLID_361_">
					<polygon id="XMLID_371_" fill="#FFFFFF" points="408.746,556.924 411.38,561.729 416.781,560.708 413.039,564.748 
						415.675,569.553 410.701,567.214 406.917,571.211 407.597,565.769 402.623,563.387 408.023,562.366 					"/>
					<polygon id="XMLID_370_" fill="#FFFFFF" points="423.287,536.982 423.203,540.214 426.263,541.276 423.16,542.212 
						423.117,545.443 421.246,542.808 418.185,543.743 420.097,541.149 418.269,538.513 421.332,539.576 					"/>
					<polygon id="XMLID_369_" fill="#FFFFFF" points="406.152,584.774 407.341,587.794 410.574,587.538 408.107,589.622 
						409.339,592.641 406.576,590.897 404.111,592.981 404.876,589.835 402.154,588.134 405.386,587.921 					"/>
					<polygon id="XMLID_368_" fill="#FFFFFF" points="398.498,532.518 399.433,535.621 402.666,535.707 399.986,537.535 
						400.878,540.639 398.328,538.683 395.648,540.512 396.753,537.45 394.16,535.494 397.435,535.579 					"/>
					<polygon id="XMLID_367_" fill="#FFFFFF" points="426.349,556.201 427.285,559.306 430.515,559.391 427.837,561.261 
						428.771,564.322 426.177,562.366 423.542,564.195 424.605,561.134 422.054,559.178 425.285,559.263 					"/>
					<polygon id="XMLID_366_" fill="#FFFFFF" points="395.095,576.483 395.947,578.057 397.689,577.717 396.457,578.992 
						397.306,580.522 395.691,579.758 394.501,581.033 394.712,579.29 393.14,578.524 394.884,578.227 					"/>
					<polygon id="XMLID_365_" fill="#FFFFFF" points="425.115,584.52 425.923,586.093 427.666,585.753 426.433,587.028 
						427.285,588.602 425.71,587.836 424.478,589.111 424.732,587.368 423.117,586.604 424.861,586.263 					"/>
					<polygon id="XMLID_364_" fill="#FFFFFF" points="438.21,565.088 438,566.831 439.572,567.597 437.83,567.895 437.617,569.638 
						436.765,568.064 435.023,568.404 436.255,567.129 435.447,565.556 437.021,566.363 					"/>
					<polygon id="XMLID_363_" fill="#FFFFFF" points="394.076,553.14 393.82,554.883 395.394,555.648 393.693,555.946 
						393.437,557.689 392.63,556.159 390.886,556.456 392.121,555.181 391.269,553.65 392.843,554.415 					"/>
					<polygon id="XMLID_362_" fill="#FFFFFF" points="414.869,524.523 414.613,526.268 416.185,527.032 414.486,527.33 
						414.23,529.073 413.421,527.543 411.679,527.841 412.912,526.564 412.062,525.034 413.634,525.8 					"/>
				</g>
				<g id="XMLID_372_">
					<polygon id="XMLID_382_" fill="#FFFFFF" points="450.5,485.405 455.687,483.534 455.474,478.007 458.876,482.344 
						464.064,480.473 461.001,485.022 464.361,489.402 459.089,487.872 455.984,492.421 455.814,486.937 					"/>
					<polygon id="XMLID_381_" fill="#FFFFFF" points="432.982,468.058 436.169,468.61 437.701,465.719 438.169,468.95 
						441.357,469.46 438.466,470.906 438.935,474.095 436.638,471.799 433.748,473.245 435.236,470.354 					"/>
					<polygon id="XMLID_380_" fill="#FFFFFF" points="477.669,492.166 480.816,491.443 481.072,488.212 482.773,490.976 
						485.919,490.21 483.792,492.677 485.494,495.44 482.474,494.207 480.392,496.631 480.646,493.399 					"/>
					<polygon id="XMLID_379_" fill="#FFFFFF" points="424.861,491.868 428.048,491.443 428.644,488.254 430.048,491.146 
						433.236,490.721 430.941,492.974 432.343,495.865 429.496,494.335 427.156,496.588 427.708,493.399 					"/>
					<polygon id="XMLID_378_" fill="#FFFFFF" points="452.498,467.887 455.687,467.462 456.24,464.273 457.642,467.207 
						460.875,466.739 458.537,468.993 459.939,471.884 457.089,470.354 454.751,472.606 455.347,469.418 					"/>
					<polygon id="XMLID_377_" fill="#FFFFFF" points="467.806,501.818 469.464,501.266 469.421,499.479 470.484,500.883 
						472.142,500.287 471.164,501.733 472.228,503.137 470.527,502.626 469.548,504.071 469.505,502.328 					"/>
					<polygon id="XMLID_376_" fill="#FFFFFF" points="480.263,473.415 481.921,472.819 481.88,471.076 482.943,472.437 
						484.601,471.884 483.623,473.33 484.685,474.69 482.986,474.223 482.007,475.668 481.964,473.883 					"/>
					<polygon id="XMLID_375_" fill="#FFFFFF" points="463.042,457.513 464.701,457.98 465.722,456.534 465.765,458.32 
						467.423,458.788 465.765,459.383 465.806,461.127 464.744,459.766 463.085,460.318 464.107,458.873 					"/>
					<polygon id="XMLID_374_" fill="#FFFFFF" points="444.546,499.352 446.248,499.862 447.226,498.417 447.31,500.16 
						448.968,500.67 447.31,501.223 447.353,503.009 446.291,501.605 444.632,502.201 445.652,500.755 					"/>
					<polygon id="XMLID_373_" fill="#FFFFFF" points="419.417,474.478 421.076,474.988 422.097,473.542 422.138,475.285 
						423.839,475.796 422.181,476.392 422.224,478.135 421.119,476.731 419.503,477.326 420.48,475.881 					"/>
				</g>
				<g id="XMLID_394_">
					<polygon id="XMLID_404_" fill="#FFFFFF" points="443.527,600.677 446.417,605.396 451.775,604.121 448.162,608.288 
						451.052,613.008 445.951,610.882 442.378,615.049 442.804,609.563 437.744,607.438 443.101,606.162 					"/>
					<polygon id="XMLID_403_" fill="#FFFFFF" points="457.132,580.098 457.218,583.329 460.322,584.265 457.302,585.327 
						457.388,588.559 455.39,586.008 452.371,587.113 454.199,584.435 452.201,581.884 455.304,582.776 					"/>
					<polygon id="XMLID_402_" fill="#FFFFFF" points="442.208,628.613 443.568,631.547 446.8,631.207 444.419,633.375 
						445.738,636.309 442.931,634.735 440.55,636.947 441.187,633.758 438.382,632.185 441.57,631.802 					"/>
					<polygon id="XMLID_401_" fill="#FFFFFF" points="432.173,576.781 433.236,579.843 436.468,579.8 433.917,581.713 
						434.98,584.774 432.3,582.946 429.75,584.902 430.685,581.798 428.007,579.928 431.238,579.885 					"/>
					<polygon id="XMLID_400_" fill="#FFFFFF" points="461.087,599.189 462.15,602.25 465.382,602.165 462.83,604.121 
						463.851,607.183 461.214,605.354 458.621,607.268 459.599,604.206 456.919,602.336 460.152,602.293 					"/>
					<polygon id="XMLID_399_" fill="#FFFFFF" points="430.812,620.874 431.707,622.362 433.449,621.979 432.259,623.298 
						433.195,624.786 431.578,624.105 430.388,625.424 430.558,623.681 428.943,623 430.642,622.617 					"/>
					<polygon id="XMLID_398_" fill="#FFFFFF" points="461.13,627.508 462.023,629.038 463.765,628.655 462.576,629.974 
						463.511,631.462 461.894,630.781 460.705,632.1 460.875,630.356 459.259,629.676 460.96,629.293 					"/>
					<polygon id="XMLID_397_" fill="#FFFFFF" points="473.375,607.48 473.205,609.224 474.822,609.946 473.121,610.329 
						472.951,612.072 472.058,610.542 470.314,610.967 471.505,609.606 470.611,608.118 472.228,608.799 					"/>
					<polygon id="XMLID_396_" fill="#FFFFFF" points="428.73,597.573 428.56,599.316 430.175,599.997 428.431,600.38 
						428.304,602.165 427.412,600.635 425.667,601.018 426.859,599.699 425.923,598.211 427.539,598.892 					"/>
					<polygon id="XMLID_395_" fill="#FFFFFF" points="448.162,568.021 448.033,569.808 449.65,570.488 447.906,570.871 
						447.736,572.614 446.843,571.126 445.142,571.509 446.291,570.19 445.398,568.659 447.013,569.383 					"/>
				</g>
				<g id="XMLID_405_">
					<polygon id="XMLID_415_" fill="#FFFFFF" points="488.554,588.389 491.404,593.108 496.761,591.833 493.189,596 496.039,600.72 
						490.937,598.594 487.365,602.761 487.832,597.275 482.73,595.149 488.087,593.874 					"/>
					<polygon id="XMLID_414_" fill="#FFFFFF" points="502.162,567.81 502.246,571.041 505.351,571.977 502.289,573.039 
						502.375,576.313 500.417,573.72 497.357,574.825 499.185,572.146 497.23,569.595 500.333,570.488 					"/>
					<polygon id="XMLID_413_" fill="#FFFFFF" points="487.238,616.367 488.554,619.301 491.787,618.918 489.406,621.087 
						490.765,624.063 487.917,622.447 485.537,624.658 486.173,621.47 483.367,619.896 486.599,619.514 					"/>
					<polygon id="XMLID_412_" fill="#FFFFFF" points="477.203,564.492 478.265,567.554 481.498,567.512 478.904,569.468 
						479.966,572.529 477.33,570.658 474.736,572.614 475.671,569.51 473.035,567.682 476.267,567.597 					"/>
					<polygon id="XMLID_411_" fill="#FFFFFF" points="506.117,586.9 507.179,589.962 510.41,589.92 507.816,591.833 508.88,594.895 
						506.244,593.066 503.65,595.022 504.585,591.918 501.949,590.047 505.181,590.005 					"/>
					<polygon id="XMLID_410_" fill="#FFFFFF" points="475.841,608.586 476.734,610.074 478.435,609.691 477.287,611.01 
						478.179,612.54 476.564,611.817 475.416,613.136 475.587,611.393 473.97,610.712 475.671,610.329 					"/>
					<polygon id="XMLID_409_" fill="#FFFFFF" points="506.158,615.262 507.05,616.75 508.751,616.367 507.605,617.686 
						508.498,619.174 506.88,618.493 505.734,619.812 505.904,618.068 504.287,617.388 505.988,617.005 					"/>
					<polygon id="XMLID_408_" fill="#FFFFFF" points="518.361,595.192 518.191,596.978 519.808,597.658 518.107,598.041 
						517.937,599.784 517.044,598.296 515.343,598.679 516.49,597.36 515.597,595.83 517.214,596.553 					"/>
					<polygon id="XMLID_407_" fill="#FFFFFF" points="473.716,585.285 473.546,587.028 475.162,587.751 473.46,588.134 
						473.291,589.877 472.398,588.347 470.697,588.729 471.845,587.411 470.953,585.923 472.568,586.604 					"/>
					<polygon id="XMLID_406_" fill="#FFFFFF" points="493.189,555.776 493.019,557.52 494.636,558.199 492.935,558.582 
						492.765,560.326 491.873,558.838 490.171,559.22 491.318,557.902 490.425,556.371 492.042,557.094 					"/>
				</g>
				<g id="XMLID_383_">
					<polygon id="XMLID_393_" fill="#FFFFFF" points="439.189,544.934 444.376,543.063 444.164,537.535 447.566,541.872 
						452.753,540.001 449.65,544.551 453.05,548.931 447.779,547.399 444.675,551.949 444.503,546.464 					"/>
					<polygon id="XMLID_392_" fill="#FFFFFF" points="421.671,527.585 424.861,528.138 426.39,525.247 426.859,528.479 
						430.048,528.988 427.113,530.435 427.625,533.623 425.328,531.327 422.437,532.772 423.925,529.882 					"/>
					<polygon id="XMLID_391_" fill="#FFFFFF" points="466.359,551.694 469.505,550.972 469.761,547.74 471.462,550.504 
						474.609,549.738 472.482,552.204 474.183,554.968 471.164,553.735 469.082,556.159 469.335,552.927 					"/>
					<polygon id="XMLID_390_" fill="#FFFFFF" points="413.55,551.396 416.738,550.972 417.333,547.782 418.738,550.674 
						421.925,550.248 419.587,552.502 421.033,555.394 418.185,553.862 415.845,556.116 416.398,552.927 					"/>
					<polygon id="XMLID_389_" fill="#FFFFFF" points="441.146,527.415 444.376,526.99 444.929,523.801 446.333,526.735 
						449.564,526.268 447.226,528.521 448.628,531.412 445.781,529.882 443.441,532.135 444.037,528.946 					"/>
					<polygon id="XMLID_388_" fill="#FFFFFF" points="456.496,561.346 458.154,560.793 458.111,559.008 459.173,560.411 
						460.832,559.815 459.855,561.261 460.917,562.664 459.216,562.154 458.238,563.6 458.195,561.856 					"/>
					<polygon id="XMLID_387_" fill="#FFFFFF" points="468.953,532.942 470.611,532.348 470.57,530.604 471.632,531.965 
						473.291,531.412 472.312,532.857 473.375,534.219 471.675,533.751 470.697,535.196 470.654,533.41 					"/>
					<polygon id="XMLID_386_" fill="#FFFFFF" points="451.691,517.04 453.39,517.508 454.369,516.063 454.455,517.849 
						456.113,518.316 454.455,518.911 454.496,520.654 453.433,519.294 451.775,519.847 452.796,518.401 					"/>
					<polygon id="XMLID_385_" fill="#FFFFFF" points="433.236,558.88 434.937,559.391 435.916,557.944 435.958,559.688 
						437.658,560.198 436,560.751 436.042,562.537 434.98,561.134 433.322,561.729 434.341,560.283 					"/>
					<polygon id="XMLID_384_" fill="#FFFFFF" points="408.107,534.006 409.765,534.516 410.787,533.07 410.828,534.813 
						412.486,535.324 410.871,535.919 410.914,537.662 409.808,536.26 408.15,536.854 409.169,535.409 					"/>
				</g>
				<g id="XMLID_294_">
					<polygon id="XMLID_327_" fill="#FFFFFF" points="102.388,454.493 98.306,458.15 93.544,455.429 95.798,460.446 91.673,464.146 
						97.158,463.55 99.412,468.61 100.56,463.21 106.045,462.614 101.24,459.894 					"/>
					<polygon id="XMLID_326_" fill="#FFFFFF" points="95.288,430.853 94.267,433.956 91.035,433.914 93.629,435.827 92.608,438.931 
						95.245,437.018 97.838,438.931 96.861,435.869 99.497,433.956 96.265,433.956 					"/>
					<polygon id="XMLID_325_" fill="#FFFFFF" points="95.627,481.621 93.501,484.045 90.525,482.77 92.184,485.575 90.058,487.999 
						93.204,487.276 94.862,490.083 95.16,486.852 98.306,486.128 95.33,484.853 					"/>
					<polygon id="XMLID_324_" fill="#FFFFFF" points="120.119,434.85 118.248,437.485 115.144,436.508 117.058,439.102 
						115.187,441.737 118.248,440.717 120.162,443.311 120.162,440.079 123.223,439.102 120.162,438.081 					"/>
					<polygon id="XMLID_323_" fill="#FFFFFF" points="86.018,448.03 84.104,450.624 81.043,449.646 82.957,452.24 81.043,454.876 
						84.147,453.855 86.061,456.492 86.018,453.261 89.122,452.24 86.018,451.262 					"/>
					<polygon id="XMLID_322_" fill="#FFFFFF" points="108.809,477.454 107.491,478.645 105.96,477.794 106.683,479.367 
						105.407,480.559 107.15,480.388 107.873,481.961 108.213,480.261 109.957,480.048 108.426,479.197 					"/>
					<polygon id="XMLID_298_" fill="#FFFFFF" points="77.854,475.158 76.536,476.349 75.005,475.456 75.728,477.071 74.453,478.262 
						76.196,478.05 76.919,479.665 77.259,477.922 79.002,477.752 77.472,476.859 					"/>
					<polygon id="XMLID_297_" fill="#FFFFFF" points="71.859,452.452 71.519,454.153 69.775,454.366 71.306,455.216 70.966,456.96 
						72.242,455.769 73.772,456.619 73.049,455.046 74.368,453.855 72.624,454.025 					"/>
					<polygon id="XMLID_296_" fill="#FFFFFF" points="117.483,455.769 117.143,457.47 115.399,457.683 116.93,458.533 
						116.59,460.276 117.866,459.086 119.396,459.936 118.673,458.362 119.949,457.172 118.206,457.385 					"/>
					<polygon id="XMLID_295_" fill="#FFFFFF" points="107.32,421.881 106.98,423.624 105.237,423.794 106.768,424.687 
						106.428,426.388 107.703,425.197 109.234,426.09 108.511,424.475 109.787,423.283 108.043,423.496 					"/>
				</g>
				<g id="XMLID_328_">
					<polygon id="XMLID_338_" fill="#FFFFFF" points="130.324,398.495 126.242,402.194 121.437,399.43 123.691,404.49 
						119.609,408.146 125.094,407.594 127.305,412.611 128.453,407.253 133.938,406.658 129.176,403.895 					"/>
					<polygon id="XMLID_337_" fill="#FFFFFF" points="123.181,374.896 122.16,377.958 118.929,377.958 121.565,379.871 
						120.544,382.932 123.181,381.062 125.774,382.975 124.796,379.913 127.433,378 124.159,378 					"/>
					<polygon id="XMLID_336_" fill="#FFFFFF" points="123.563,425.665 121.437,428.089 118.461,426.813 120.119,429.619 
						117.951,432.043 121.097,431.32 122.755,434.084 123.053,430.895 126.242,430.172 123.266,428.896 					"/>
					<polygon id="XMLID_335_" fill="#FFFFFF" points="148.055,378.893 146.141,381.529 143.08,380.509 144.993,383.145 
						143.08,385.781 146.184,384.761 148.097,387.354 148.055,384.123 151.159,383.102 148.055,382.125 					"/>
					<polygon id="XMLID_334_" fill="#FFFFFF" points="113.911,392.031 112.04,394.668 108.937,393.69 110.85,396.284 
						108.979,398.92 112.04,397.899 113.954,400.493 113.954,397.261 117.015,396.284 113.954,395.263 					"/>
					<polygon id="XMLID_333_" fill="#FFFFFF" points="136.702,421.498 135.426,422.688 133.896,421.796 134.618,423.411 
						133.3,424.602 135.043,424.39 135.767,426.005 136.149,424.262 137.893,424.092 136.362,423.198 					"/>
					<polygon id="XMLID_332_" fill="#FFFFFF" points="105.747,419.159 104.472,420.35 102.941,419.5 103.664,421.115 
						102.346,422.264 104.089,422.093 104.812,423.666 105.194,421.966 106.938,421.753 105.407,420.902 					"/>
					<polygon id="XMLID_331_" fill="#FFFFFF" points="99.794,396.496 99.454,398.197 97.711,398.41 99.242,399.26 98.859,401.003 
						100.177,399.813 101.708,400.663 100.985,399.047 102.261,397.857 100.517,398.069 					"/>
					<polygon id="XMLID_330_" fill="#FFFFFF" points="145.418,399.813 145.078,401.514 143.335,401.726 144.866,402.576 
						144.483,404.32 145.801,403.129 147.332,403.979 146.609,402.364 147.885,401.173 146.141,401.386 					"/>
					<polygon id="XMLID_329_" fill="#FFFFFF" points="135.256,365.924 134.916,367.625 133.173,367.837 134.704,368.688 
						134.321,370.431 135.639,369.241 137.169,370.091 136.447,368.518 137.722,367.327 135.979,367.54 					"/>
				</g>
				<g id="XMLID_339_">
					<polygon id="XMLID_349_" fill="#FFFFFF" points="115.187,512.278 111.105,515.978 106.343,513.214 108.596,518.273 
						104.472,521.93 109.957,521.377 112.21,526.395 113.358,520.995 118.843,520.442 114.039,517.678 					"/>
					<polygon id="XMLID_348_" fill="#FFFFFF" points="108.086,488.68 107.065,491.741 103.834,491.741 106.428,493.654 
						105.407,496.716 108.043,494.845 110.637,496.758 109.659,493.654 112.295,491.783 109.064,491.783 					"/>
					<polygon id="XMLID_347_" fill="#FFFFFF" points="108.426,539.448 106.3,541.872 103.324,540.597 104.982,543.36 
						102.856,545.826 106.002,545.104 107.661,547.867 107.958,544.679 111.105,543.955 108.128,542.68 					"/>
					<polygon id="XMLID_346_" fill="#FFFFFF" points="132.917,492.677 131.047,495.313 127.943,494.292 129.856,496.929 
						127.985,499.522 131.047,498.544 132.96,501.138 132.96,497.906 136.021,496.886 132.96,495.908 					"/>
					<polygon id="XMLID_345_" fill="#FFFFFF" points="98.816,505.815 96.903,508.451 93.842,507.474 95.755,510.067 93.842,512.703 
						96.946,511.683 98.859,514.276 98.816,511.045 101.92,510.024 98.816,509.047 					"/>
					<polygon id="XMLID_344_" fill="#FFFFFF" points="121.607,535.281 120.289,536.472 118.758,535.579 119.481,537.195 
						118.206,538.386 119.949,538.173 120.672,539.788 121.012,538.045 122.755,537.875 121.225,536.982 					"/>
					<polygon id="XMLID_343_" fill="#FFFFFF" points="90.653,532.942 89.334,534.134 87.804,533.283 88.527,534.856 87.251,536.047 
						88.995,535.877 89.717,537.45 90.058,535.749 91.801,535.536 90.27,534.687 					"/>
					<polygon id="XMLID_342_" fill="#FFFFFF" points="84.657,510.237 84.317,511.98 82.574,512.193 84.104,513.043 83.765,514.744 
						85.04,513.554 86.571,514.446 85.848,512.831 87.166,511.641 85.423,511.853 					"/>
					<polygon id="XMLID_341_" fill="#FFFFFF" points="130.281,513.597 129.941,515.297 128.198,515.51 129.729,516.36 
						129.388,518.104 130.664,516.913 132.195,517.764 131.472,516.147 132.79,514.957 131.047,515.17 					"/>
					<polygon id="XMLID_340_" fill="#FFFFFF" points="120.119,479.708 119.779,481.408 118.036,481.621 119.566,482.472 
						119.226,484.215 120.502,483.024 122.032,483.875 121.31,482.302 122.585,481.111 120.842,481.281 					"/>
				</g>
			</g>
			<g id="XMLID_41_">
				<path id="XMLID_422_" fill="#FFFFFF" d="M263.709,464.911c1.531-0.553,3.104-1.063,4.677-1.573
					c0.468-0.171,0.936-0.298,1.403-0.468c-1.063-0.256-2.211-0.383-3.359-0.383c-0.766,0-1.531,0.042-2.296,0.127
					c-0.042,0-0.085,0-0.17,0.043C263.922,463.423,263.837,464.188,263.709,464.911 M259.882,501.436
					c1.105-4.975,2.934-9.737,5.272-14.287c-1.701-0.595-3.487-1.021-5.23-1.615c-1.233,5.018-2.721,9.949-4.507,14.797
					L259.882,501.436 M273.489,501.648c1.361-0.256,2.721-0.468,4.125-0.638c-0.085-0.171-0.17-0.341-0.213-0.468
					c-0.68-1.446-1.445-2.892-2.253-4.295C274.552,497.991,274.042,499.819,273.489,501.648 M52.81,241.511l10.332,18.666
					l62.462,112.806c0.468,4.082,1.531,8.376,3.231,12.756c0.596,1.531,1.233,3.019,1.871,4.465c1.148,2.636,2.211,5.23,2.934,7.696
					c-2.339,1.658-4.209,3.912-5.272,6.505c-2.849,6.761-0.383,13.351,1.573,18.667c0.212,0.553,0.425,1.147,0.638,1.7
					c0.723,2.041,1.36,4.21,2.041,6.506c2.381,8.036,5.102,17.136,12.798,23.089c2.168,1.658,5.613,3.656,9.78,3.656
					c0.085,0,0.127,0,0.212,0c2.126,8.887,4.635,17.008,7.568,24.619c0.723,4.55,1.361,9.185,1.956,13.861l-3.742,2.169
					l-7.356,4.294l-1.743,1.021l-22.366,13.012l-46.942,27.34L57.402,559.05c-2.253,1.318-5.315,3.062-7.398,6.251
					c-2.338,3.529-2.679,7.355-2.934,10.417c-0.042,0.383-0.042,0.723-0.085,1.063c-1.403,14.414-10.12,26.787-19.304,39.884
					c-5.655,8.078-11.523,16.412-15.817,25.512l-3.444,7.313l7.909,1.658c0.766,0.17,1.531,0.255,2.339,0.255
					c0.467,0,0.935-0.042,1.403-0.085c2.041,1.531,4.38,2.807,7.016,3.827c1.021,0.425,2.126,0.766,3.231,1.105
					c1.573,0.468,3.274,0.851,5.017,1.19c3.912,0.723,8.334,1.063,13.181,1.063c5.698,0,11.991-0.511,19.262-1.488
					c1.446-0.213,2.977-0.426,4.762-0.638c0.383-0.043,0.723-0.086,1.105-0.128l0.34-0.043c1.19-0.17,2.338-0.297,3.529-0.425
					l0.34-0.043c0.34-0.042,0.723-0.085,1.063-0.127c1.701-0.213,3.231-0.383,4.677-0.553h0.085h0.042
					c1.446-0.17,2.977-0.341,4.763-0.511c0.34-0.042,0.723-0.085,1.063-0.127l0.382-0.043c1.148-0.128,2.339-0.213,3.487-0.34
					l0.34-0.043c0.382-0.042,0.765-0.085,1.148-0.127c1.616-0.128,3.062-0.298,4.464-0.383h0.17h0.17
					c1.446-0.128,2.934-0.256,4.72-0.383c0.383-0.043,0.765-0.043,1.148-0.085l0.383-0.043c1.148-0.085,2.253-0.17,3.401-0.255
					h0.255c0.425-0.043,0.893-0.043,1.318-0.085c1.403-0.085,2.849-0.213,4.252-0.298h0.298h0.255
					c1.573-0.085,3.146-0.213,4.677-0.298c0.383-0.042,0.766-0.042,1.191-0.085l0.425-0.042c1.106-0.043,2.211-0.128,3.317-0.17
					h0.255c0.468-0.043,0.936-0.043,1.403-0.085c1.361-0.085,2.721-0.128,4.082-0.213h0.34h0.383
					c2.381-0.128,5.018-0.213,8.036-0.34h0.468l0.893-0.043c2.594-0.085,5.188-0.17,7.781-0.255l0.808-0.043h0.468
					c2.892-0.085,5.485-0.127,7.951-0.17h0.085h0.042c2.466-0.042,5.102-0.085,8.121-0.128h0.383h0.893
					c2.721-0.042,5.4-0.042,7.994-0.085h0.468h0.382c2.764,0,5.485-0.042,8.122-0.042h0.127h0.127c0.978,0,1.956,0,2.934,0
					c1.786,0,3.614,0,5.4,0h0.978c2.806,0,5.57,0,8.376,0.042c10.545,0.043,21.175,0.171,31.422,0.298
					c15.18,0.17,30.827,0.341,46.347,0.341c7.696,0,14.754-0.043,21.559-0.128h0.723c1.146,0,2.338-0.043,3.486-0.043h0.084h0.043
					c2.127-0.042,4.379-0.085,6.676-0.127h0.34h0.893c1.021-0.043,2-0.043,3.02-0.085l1.232-0.043h0.342
					c1.658-0.042,3.316-0.085,4.975-0.128h0.51c0.426,0,0.893-0.042,1.318-0.042c0.893-0.043,1.742-0.043,2.637-0.085
					c0.723-0.043,1.402-0.043,2.125-0.085h0.17c0.766-0.043,1.574-0.043,2.34-0.085c1.359-0.043,2.678-0.128,4.039-0.17
					c0.51-0.043,1.063-0.043,1.572-0.085l0.596-0.043c0.85-0.043,1.744-0.085,2.594-0.128c0.723-0.042,1.488-0.085,2.211-0.127
					c1.021-0.043,2.084-0.128,3.104-0.17c0.809-0.043,1.617-0.086,2.467-0.128c1.148-0.085,2.297-0.128,3.443-0.213
					c0.639-0.042,1.275-0.085,1.914-0.127c1.063-0.086,2.084-0.128,3.146-0.213l0.553-0.043c0.383-0.042,0.766-0.042,1.105-0.085
					c1.488-0.127,2.977-0.212,4.465-0.34c0.383-0.043,0.723-0.043,1.105-0.085l0.51-0.043c0.469-0.042,0.893-0.085,1.361-0.127
					c11.012,8.546,24.873,13.394,38.354,13.394c8.674,0,16.709-1.956,23.895-5.783c5.018-2.679,8.59-5.782,10.928-9.524
					c3.955-6.335,4.508-14.414,1.617-24.619v-0.085l0,0c-0.086-0.255-0.129-0.468-0.213-0.723l-0.043-0.128v-0.042
					c-0.043-0.213-0.127-0.383-0.17-0.596l-0.043-0.17v-0.085l-0.043-0.085c-0.041-0.17-0.084-0.298-0.127-0.468
					c-0.084-0.255-0.17-0.51-0.254-0.723c-5.23-15.987-13.311-30.912-24.066-44.306c-10.418-13.054-22.791-23.981-36.781-32.528
					l-10.545-14.797c-1.146-2.977-3.061-5.442-5.57-7.144c-2.168-1.445-4.422-2.168-6.547-2.721
					c-0.639-0.17-1.318-0.341-1.957-0.468l-0.297-1.403c-2.338-10.332-4.805-21.005-9.313-31.125
					c-2.211-4.975-4.506-8.759-7.229-11.905c-1.785-3.316-5.102-7.271-9.184-10.247c25.385-7.016,53.83-15.265,82.574-24.789
					c8.971-2.977,17.688-5.996,26.064-10.333c1.658-0.851,4.762-2.466,6.803-5.612c1.404-2.126,1.914-4.337,2.254-5.953l1.445-6.25
					l1.445-6.25l-1.488-12.331c-1.445-1.956-3.4-3.062-4.889-3.784c-4.762-2.338-10.119-3.572-15.479-3.572
					c-0.934,0-1.828,0.042-2.764,0.127c-0.764,0.042-2.594,0.213-4.422,1.361c-2.891,1.828-3.613,4.72-3.996,6.081
					c-0.043,0.085-0.043,0.17-0.086,0.255c-0.17,0.723-0.553,1.361-1.02,1.914c-0.127,0.17-0.34,0.382-0.51,0.595
					c-1.105,1.233-2.594,2.891-3.316,5.272c0,0.042-0.043,0.127-0.043,0.212l0,0c-0.086,0.298-0.17,0.595-0.213,0.936
					c0,0.085-0.043,0.213-0.043,0.298c-0.043,0.297-0.084,0.595-0.084,0.893c0,0.128,0,0.255,0,0.425
					c0,0.425,0.041,0.851,0.084,1.276c0.469,3.529,2.85,5.74,3.869,6.675c0.17,0.17,0.34,0.298,0.512,0.468
					c-25.938,12.501-54.768,20.282-82.787,27.808c-5.91,1.573-12.033,3.231-17.986,4.89c-9.822,2.722-19.687,5.613-29.381,8.632
					c-0.255-0.17-0.51-0.34-0.808-0.511c-3.062-1.955-6.421-2.891-9.652-3.358c0.213-0.255,0.425-0.511,0.638-0.766
					c0.553-0.681,1.063-1.403,1.531-2.169c0.255-0.382,0.468-0.808,0.68-1.275l0.043-0.085c0.382-0.808,0.765-1.658,1.105-2.509l0,0
					c0.127-0.425,0.297-0.808,0.425-1.232l0.043-0.085c0.212-0.766,0.425-1.488,0.638-2.339v-0.043l0.042-0.085
					c0.085-0.34,0.17-0.723,0.255-1.063l0.042-0.128v-0.042c0.085-0.341,0.128-0.681,0.213-1.021
					c1.913-10.078,2.168-20.325,0.68-30.445c-0.68-4.72-2.806-7.568-5.23-9.014c0.127-3.614,0.212-7.483,0.298-11.608
					c0.042-3.955-0.298-8.037-1.063-12.076c-0.978-7.229-2.977-14.839-6.208-24.024c-2.424-6.803-5.4-13.904-10.502-19.687
					c-4.167-4.72-9.482-8.079-14.074-10.885c-7.398-4.507-15.095-8.717-22.876-12.501c-4.677-2.296-9.694-4.55-15.435-4.762
					c-0.298,0-0.595,0-0.851,0c-8.887,0-16.413,4.89-21.982,9.142c-0.468,0.34-0.893,0.723-1.361,1.063
					c-0.042-0.042-0.127-0.042-0.17-0.085L71.689,251.418L52.81,241.511L52.81,241.511z"/>
				<g id="XMLID_64_">
					<path id="XMLID_27_" fill="#37295C" d="M21.473,644.133c-1.105,0.766-2.551,1.063-3.869,0.766
						c10.97-23.259,33.166-41.925,35.674-67.522c0.298-2.977,0.34-6.123,1.999-8.589c1.276-1.913,3.317-3.146,5.315-4.295
						c38.608-22.45,77.174-44.9,115.782-67.394c21.855,4.039,42.435,14.882,64.503,12.245c9.439-1.147,18.539-5.145,27.893-6.888
						c7.101-1.318,14.287-2.679,21.515-2.041c9.311,0.808,18.028,4.89,25.979,9.864c28.191,17.731,47.283,46.518,65.482,74.41
						c10.928,16.753,21.854,33.549,30.529,51.534c-113.955,18.114-231.182-1.403-345.434,14.415
						C52.938,652.637,31.167,654.252,21.473,644.133z"/>
					<g id="XMLID_38_">
						<path id="XMLID_81_" fill="#7253A3" d="M125.519,588.687c-0.765-20.75-0.51-41.585,0.68-62.334
							c-21.855,12.713-43.753,25.469-65.608,38.183c-1.998,1.148-4.039,2.381-5.315,4.295c-1.658,2.466-1.701,5.612-1.998,8.589
							c-2.509,25.597-24.747,44.263-35.674,67.521c1.318,0.298,2.764,0,3.869-0.766c9.694,10.12,31.465,8.504,45.326,6.591
							c21.473-2.977,43.03-4.72,64.673-5.655c5.315-17.221,10.673-34.398,15.988-51.619
							C140.401,590.94,133.002,589.367,125.519,588.687z"/>
						<path id="XMLID_83_" fill="#7253A3" d="M381.746,584.774c-18.199-27.893-37.248-56.679-65.482-74.41
							c-7.908-4.975-16.668-9.057-25.979-9.864c-0.17,0-0.34-0.043-0.553-0.043c7.016,19.518,14.075,39.034,21.09,58.551
							c-8.164,4.847-16.328,9.694-24.492,14.542c7.866,4.975,16.158,9.354,24.746,12.968c-7.695,19.05-14.499,38.438-20.366,58.083
							c40.733-0.213,81.298-1.914,121.479-8.292C403.599,618.323,392.673,601.527,381.746,584.774z"/>
						<polygon id="XMLID_56_" fill="#483372" points="297.64,518.571 317.285,560.666 293.048,577.546 286.415,573.55 
							310.906,559.008 						"/>
						<polyline id="XMLID_57_" fill="#483372" points="290.794,644.601 311.119,586.518 301.849,644.431 						"/>
						<path id="XMLID_31_" fill="#A7428E" d="M286.415,573.55c8.164-4.848,16.327-9.695,24.491-14.542
							c-7.016-19.517-14.074-39.033-21.089-58.551c-5.06-0.382-10.077,0.171-15.095,1.021c-1.956,0.341-3.912,0.681-5.868,1.063
							c-0.85,0.17-1.701,0.34-2.551,0.553c0.553,5.145,0.978,10.29,1.233,15.435c2.253,42.988-5.613,86.528-22.918,125.944
							c15.392,0.17,30.785,0.298,46.177,0.213c5.868-19.687,12.672-39.076,20.367-58.082
							C302.572,582.861,294.281,578.524,286.415,573.55z"/>
						<path id="XMLID_86_" fill="#A7428E" d="M155.241,509.515c-9.652,5.612-19.347,11.268-28.999,16.88
							c-1.191,20.75-1.446,41.542-0.681,62.335c7.483,0.68,14.882,2.253,21.983,4.72c-5.315,17.22-10.672,34.398-15.987,51.619
							c23.641-1.063,47.41-1.19,71.136-1.063c-20.41-30.486-35.334-64.63-43.668-100.39
							C156.346,532.518,154.433,520.824,155.241,509.515z"/>
						<g id="XMLID_33_">
							<path id="XMLID_34_" fill="#91CEC3" d="M267.494,518.486c-12.543,28.573-25.002,52.172-25.002,52.172l25.384-39.161
								C267.833,527.16,267.706,522.823,267.494,518.486z"/>
							<path id="XMLID_35_" fill="#B9F6EE" d="M242.492,570.658L212.77,539.32l-16.498,37.673c0,0-26.447-21.982-40.437-50.131
								c0.723,5.655,1.828,11.268,3.104,16.753c8.376,35.717,23.258,69.903,43.668,100.39c13.989,0.085,27.978,0.255,41.967,0.426
								c15.563-35.462,23.471-74.24,23.301-112.934L242.492,570.658z"/>
							<path id="XMLID_37_" fill="#91CEC3" d="M196.272,576.993c0,0-30.189-31.805-39.076-68.627
								c-0.68,0.383-1.318,0.766-1.998,1.148c-0.425,5.74-0.128,11.565,0.595,17.348
								C169.825,555.011,196.272,576.993,196.272,576.993z"/>
						</g>
						<path id="XMLID_54_" fill="#DCF4F0" d="M266.26,503.051l-19.176-4.805l-0.766,10.248c-1.786,0.383-3.572,0.723-5.4,0.936
							c-22.068,2.636-42.647-8.164-64.503-12.246c-6.42,3.741-12.798,7.44-19.219,11.183c8.844,36.822,39.076,68.627,39.076,68.627
							l16.54-37.672l29.722,31.337c0,0,12.458-23.557,25.002-52.172C267.238,513.341,266.813,508.196,266.26,503.051z"/>
					</g>
					<path id="XMLID_21_" fill="#FDB79E" d="M165.02,459.724c3.146,14.201,5.485,28.53,6.974,42.987
						c0.723,7.144,4.805,13.521,10.97,17.221c10.162,6.123,20.197,12.501,29.806,19.389c13.734-8.886,27.638-18.283,40.522-28.36
						c0.893-11.735,1.701-23.344,1.063-35.079c-10.248,4.082-21.643,4.635-32.613,3.274c-10.715-1.318-21.132-4.38-31.507-7.483
						c-4.762-1.403-12.288-4.38-16.667-6.761C170.633,463.38,166.976,462.274,165.02,459.724z"/>
					<path id="XMLID_62_" fill="#F77E6D" d="M254.355,475.881c-10.248,4.082-21.643,4.635-32.613,3.274
						c-10.715-1.318-21.132-4.38-31.507-7.483c-4.762-1.403-12.288-4.38-16.667-6.761c-2.934-1.573-6.591-2.679-8.547-5.23
						c3.062,13.861,5.358,27.851,6.846,41.968c13.521,17.73,34.526,24.661,56.679,27.17c8.462-5.74,16.795-11.693,24.79-17.9
						C254.227,499.225,255.035,487.616,254.355,475.881z"/>
					<path id="XMLID_7_" fill="#FDB79E" d="M147.077,402.236c-4.549-2.381-10.885-0.085-12.841,4.635
						c-2.083,5.017,0.468,10.63,2.296,15.732c3.359,9.439,4.805,20.579,12.756,26.702c2.211,1.701,5.103,2.892,7.739,2.041
						c2.126-0.723,3.614-2.679,4.294-4.805c0.681-2.126,0.681-4.422,0.553-6.633C161.321,428.896,158.472,408.189,147.077,402.236z"
						/>
					<path id="XMLID_46_" fill="#F77E6D" d="M144.61,412.824c-1.998-1.573-4.634-2.594-7.101-1.999
						c1.999-0.255,3.954,0.978,5.188,2.594c1.233,1.616,1.828,3.614,2.423,5.528c-1.403-1.233-3.954-0.553-4.592,1.233
						c-0.425,1.275,0.042,2.679,0.595,3.912c1.488,3.529,3.274,6.973,5.953,9.651s6.42,4.55,10.205,4.295
						c-2.977-5.697-7.526-7.611-7.356-14.244C150.011,419.117,148.692,416.098,144.61,412.824z"/>
					<path id="XMLID_8_" fill="#FDB79E" d="M268.812,401.641c0.893-0.851,1.914-1.701,3.146-1.658
						c2.168,0.085,3.104,2.721,3.402,4.847c1.36,9.397,1.148,19.007-0.638,28.318c-0.638,3.273-1.488,6.633-3.614,9.185
						c-2.083,2.594-5.74,4.167-8.844,3.019C261.286,429.917,256.523,413.759,268.812,401.641z"/>
					<path id="XMLID_121_" fill="#FFFFFF" d="M275.36,404.873c-0.298-2.126-1.233-4.762-3.402-4.847
						c-1.233-0.042-2.253,0.808-3.146,1.658c-1.233,1.19-2.296,2.466-3.189,3.742c0.595-0.51,1.19-1.021,1.828-1.446
						c2.977-1.701,5.953-0.85,6.378,2.126c2.126,11.353,1.998,24.023-1.701,34.909c1.403-2.339,2.083-5.103,2.594-7.781
						C276.508,423.879,276.72,414.27,275.36,404.873z"/>
					<path id="XMLID_11_" fill="#7F2548" d="M257.246,367.37c2.977,21.983,8.504,46.73,8.207,68.882
						c3.699-15.307,4.634-35.844,4.89-53.022c0.255-14.882-6.038-29.424-15.605-40.777c-9.567-11.396-22.28-19.814-35.759-26.107
						c-5.315-2.466-10.885-4.677-16.71-5.315c-8.589-0.936-43.115,31.933-42.478,33.293c2.849,6.25,9.482,9.694,15.69,12.671
						c11.863,5.655,23.812,11.055,35.887,16.285c5.017,2.168,10.077,4.294,15.392,5.527c2.083,0.468,4.294,0.851,6.378,0.255
						c2.041-0.595,3.742-2.041,5.4-3.402C243.385,371.665,251.676,370.304,257.246,367.37z"/>
					<path id="XMLID_1_" fill="#FDB79E" d="M263.837,400.96c2.934,34.016,3.019,69.776-9.227,101.666
						c-1.361,3.529-2.806,7.186-5.57,9.737c-3.614,3.316-8.759,4.124-13.563,4.847c-5.911,0.851-11.863,1.701-17.816,1.148
						c-5.953-0.553-11.693-3.401-16.328-7.144c-10.758-8.717-26.065-15.18-31.295-27.978c-11.353-27.766-14.5-58.125-17.518-87.974
						c-0.723-7.059-3.827-13.352-3.742-20.452c0.043-3.699,0.425-7.484,1.871-10.885c1.275-2.977,3.274-5.57,5.57-7.866
						c9.184-9.27,22.068-13.691,34.441-17.858c7.569-2.509,15.35-5.103,23.301-4.847c12.416,0.382,23.471,7.441,33.846,14.244
						c3.529,2.296,7.101,4.72,9.609,8.079c3.402,4.635,4.337,10.63,5.145,16.328C263.794,381.104,263.029,391.904,263.837,400.96z"
						/>
					<g id="XMLID_97_">
						<path id="XMLID_119_" fill="#FFFFFF" d="M263.837,400.96c-0.681-7.866-0.17-17.05-0.893-25.257
							c-1.829,20.452,1.361,41.712,1.105,62.292c-0.255,22.79-2.211,45.709-12.203,66.16c-0.978,1.999-1.658,4.125-3.359,5.613
							c-1.36,1.233-7.143,3.954-8.844,4.677c-8.589,3.614-16.455,3.104-25.767,3.274c1.233,0.298,2.466,0.553,3.742,0.638
							c5.953,0.553,11.905-0.298,17.815-1.148c4.848-0.68,9.993-1.53,13.564-4.847c2.807-2.552,4.252-6.208,5.57-9.737
							C266.813,470.736,266.728,435.02,263.837,400.96z"/>
					</g>
					<path id="XMLID_9_" fill="#B9304A" d="M179.52,369.071c21.94,4.762,42.86,14.074,61.101,27.17
						c3.572,2.551,8.249,5.358,11.948,2.977c1.19-0.765,1.999-1.999,2.721-3.231c3.912-7.016,4.04-15.988,0.383-23.131
						c5.188,6.123,8.844,13.521,10.63,21.345c1.361,0.553,2.424-1.276,2.679-2.679c2.807-14.074-0.723-28.616-5.527-42.138
						c-2.253-6.293-4.847-12.628-9.27-17.603c-3.529-3.997-8.079-6.931-12.628-9.695c-7.271-4.422-14.754-8.504-22.365-12.246
						c-4.082-1.999-8.334-3.955-12.884-4.125c-6.888-0.255-13.266,3.614-18.709,7.824c-4.932,3.784-9.567,7.909-14.159,12.076
						c-3.146,2.806-4.805,5.188-7.398,8.504c-4.039,5.145-8.079,10.29-11.183,16.073
						C162.384,357.208,169.442,366.902,179.52,369.071z"/>
					<path id="XMLID_17_" fill="#D84244" d="M195.72,347.13c9.482-1.999,17.561-10.8,17.178-20.452
						c4.082,1.361,7.866,3.529,11.183,6.25c-1.403-5.06-2.764-10.077-4.167-15.137c12.374,0.34,21.43,11.353,28.701,21.388
						c-4.125-3.402-8.674-6.293-13.521-8.589c1.021,5.953,2.041,11.863,3.019,17.816c-3.997-2.636-7.952-5.23-11.948-7.866
						c1.148,5.698,1.403,11.906-1.531,16.966c-3.742,6.463-11.906,9.269-19.389,8.759c-7.441-0.553-14.372-3.827-21.132-7.058
						c1.531,2.041,3.062,4.125,4.592,6.166c-10.545-2.764-19.857-10.035-25.129-19.602c5.91-7.271,6.165-5.57,13.606-1.616
						C182.836,347.088,189.384,348.448,195.72,347.13z"/>
					<path id="XMLID_10_" fill="#B9304A" d="M155.878,348.321c5.91,7.483,9.312,14.712,16.285,21.218
						c-4.04,2.976-6.123,8.886-6.335,13.904c-0.213,5.018,1.063,9.95,2.168,14.882c1.105,4.89,2.083,9.95,1.318,14.925
						c0.893-4.379-1.701-8.632-3.487-12.713c-2.934-6.803-3.827-14.5-2.424-21.813c-2.253,6.208-2.849,12.969-1.786,19.474
						c0.34,1.999,0.808,3.997,0.85,6.038c0.085,4.337-1.828,8.461-3.699,12.416c0,0-4.124,10.162,0.425,29.254
						c-4.592-6.633-5.91-15.265-7.568-23.174c-1.658-7.908-4.379-16.2-10.928-20.919c-0.34-6.463-3.572-12.288-5.91-18.326
						c-2.892-7.483-4.337-15.987-1.573-23.514C136.021,352.36,147.97,346.918,155.878,348.321z"/>
					<path id="XMLID_40_" fill="#D84244" d="M138.445,386.929c0.34-2.126,1.105-4.209,2.168-6.123
						c2.211,1.021,2.636,4.125,4.635,5.528c1.275,0.893,2.934,0.893,4.464,0.893c1.956,0,3.912,0,5.868,0
						c0.51,0,1.063,0,1.446-0.297c0.34-0.213,0.51-0.595,0.68-0.978c2.764-5.57,5.528-11.183,8.292-16.753
						c-3.699,3.019-7.398,5.995-11.098,9.014c0.34-3.019,0.68-6.08,1.021-9.099c-0.723,6.378-15.52,0.765-17.901,1.616
						C131.429,373.025,136.021,382.592,138.445,386.929z"/>
					<path id="XMLID_12_" fill="#852437" d="M216.044,414.95c1.233-2.849,1.488-6.081,0.808-9.057
						c-0.893,1.786-2.168,3.742-3.062,5.57c-0.595-1.488-0.936-3.061-0.936-4.677c-6.59,2.253-14.584-0.766-21.217,1.445
						c-4.209,1.403-7.568,4.55-10.8,7.611c-2.296,2.168-4.634,4.464-5.442,7.483c4.167-2.977,9.057-4.635,13.819-6.591
						c4.763-1.956,9.992-2.976,15.052-2.041C208.688,415.502,211.92,416.906,216.044,414.95z"/>
					<path id="XMLID_13_" fill="#852437" d="M240.11,403.427c-0.212,2.211,0.042,4.465,0.723,6.591
						c0.17-2.211,2.168-4.125,4.379-4.167c1.233-0.042,2.466,0.468,3.699,0.638c2.041,0.298,4.082-0.34,6.123-0.383
						c4.422-0.17,8.887,2.424,10.928,6.335c-2.296-0.893-4.72-1.701-7.186-1.445c-3.189,0.34-5.995,2.423-9.142,2.976
						c-3.827,0.638-7.781,0.042-11.608,0.681C237.134,411.123,238.58,406.616,240.11,403.427z"/>
					
						<linearGradient id="XMLID_44_" gradientUnits="userSpaceOnUse" x1="569.6089" y1="254.9736" x2="509.8613" y2="312.0787" gradientTransform="matrix(0.4252 0 0 -0.4252 0.1206 570.0397)">
						<stop  offset="0" style="stop-color:#FE768A"/>
						<stop  offset="1" style="stop-color:#FDB79E"/>
					</linearGradient>
					<path id="XMLID_14_" fill="url(#XMLID_44_)" d="M240.323,448.753c1.403,1.999,2.934,3.912,3.912,6.166
						c0.978,2.211,1.361,4.89,0.298,7.058c-1.488,3.146-5.4,4.423-8.887,4.252c-3.487-0.17-6.846-1.36-10.29-1.785
						c-1.999-0.213-4.082-0.213-5.868-1.148c-2.041-1.063-3.274-3.316-3.699-5.57c-0.425-2.253-0.17-4.592,0.17-6.846
						c0.978-6.761,2.466-13.436,4.422-19.941c0.595-1.956,1.275-3.997,2.721-5.442c5.485-5.4,7.568,2.764,8.929,6.42
						C234.243,437.783,236.751,443.565,240.323,448.753z"/>
					<path id="XMLID_29_" fill="#FFFFFF" d="M240.323,448.753c0,0,0.34,0.426,0.936,1.19c0.297,0.383,0.638,0.851,1.063,1.403
						c0.425,0.553,0.85,1.148,1.318,1.871c0.425,0.723,0.893,1.53,1.233,2.424c0.34,0.936,0.595,1.913,0.638,3.019
						c0.042,1.063-0.085,2.254-0.553,3.316c-0.042,0.085-0.042,0.128-0.085,0.213l-0.085,0.17l-0.212,0.383
						c-0.17,0.255-0.34,0.511-0.51,0.723c-0.383,0.468-0.808,0.851-1.276,1.233c-0.935,0.681-2.041,1.148-3.104,1.488
						c-1.105,0.298-2.211,0.425-3.274,0.425c-0.255,0-0.51,0-0.808,0c-0.255,0-0.51-0.042-0.766-0.085
						c-0.51-0.042-1.021-0.127-1.488-0.212c-0.936-0.171-1.829-0.383-2.637-0.596c-1.616-0.425-2.934-0.766-3.912-0.979
						c-0.936-0.212-1.488-0.297-1.488-0.297s0.127,0,0.383,0.042c0.255,0,0.638,0.043,1.105,0.128
						c0.978,0.127,2.338,0.34,3.955,0.68c0.808,0.128,1.701,0.298,2.636,0.426c0.467,0.042,0.935,0.128,1.445,0.128
						c0.255,0,0.51,0.042,0.766,0.042c0.255,0,0.51,0,0.723,0c1.021-0.042,2.041-0.213,3.062-0.468
						c1.021-0.298,1.999-0.766,2.806-1.36c0.425-0.34,0.808-0.681,1.148-1.063c0.17-0.212,0.297-0.425,0.425-0.595l0.213-0.341
						l0.085-0.17c0-0.042,0.042-0.127,0.085-0.17c0.425-0.936,0.595-1.956,0.553-2.934c-0.042-0.979-0.212-1.956-0.51-2.849
						c-0.297-0.894-0.68-1.701-1.063-2.424c-0.808-1.446-1.573-2.594-2.083-3.402C240.621,449.221,240.323,448.753,240.323,448.753z
						"/>
					
						<linearGradient id="XMLID_45_" gradientUnits="userSpaceOnUse" x1="472.0151" y1="338.9663" x2="472.0151" y2="300.9545" gradientTransform="matrix(0.4252 0 0 -0.4252 0.1206 570.0397)">
						<stop  offset="0" style="stop-color:#481621"/>
						<stop  offset="0.9946" style="stop-color:#07406D"/>
					</linearGradient>
					<ellipse id="XMLID_15_" fill="url(#XMLID_45_)" cx="200.822" cy="434.296" rx="4.549" ry="9.61"/>
					
						<linearGradient id="XMLID_51_" gradientUnits="userSpaceOnUse" x1="570.0151" y1="345.2065" x2="570.0151" y2="307.8141" gradientTransform="matrix(0.4252 0 0 -0.4252 0.1206 570.0397)">
						<stop  offset="0" style="stop-color:#481621"/>
						<stop  offset="0.9946" style="stop-color:#07406D"/>
					</linearGradient>
					<ellipse id="XMLID_16_" fill="url(#XMLID_51_)" cx="242.492" cy="431.788" rx="2.849" ry="8.122"/>
					<path id="XMLID_18_" fill="#F2A088" d="M176.926,440.122c-1.658,0.17-3.444,0.553-4.422,1.87
						c-0.851,1.148-0.851,2.637-0.851,4.082c0,0.681,0.042,1.403,0.468,1.914c0.297,0.34,0.765,0.51,1.19,0.68
						c3.997,1.531,8.036,3.062,12.033,4.592c5.06,1.956,19.899,6.847,14.839-4.166C196.485,440.972,184.792,439.313,176.926,440.122
						z"/>
					<path id="XMLID_19_" fill="#F2A088" d="M254.482,435.104c1.616-0.341,3.274-0.468,4.805,0.085s2.849,1.913,2.977,3.529
						c0.042,0.425-0.042,0.893-0.255,1.232c-0.212,0.341-0.553,0.596-0.85,0.809c-3.359,2.466-6.676,4.89-10.035,7.355
						c-3.699,2.722-10.885,4.039-9.652-2.764C242.492,440.122,249.848,436.082,254.482,435.104z"/>
					<path id="XMLID_20_" fill="#F77E6D" d="M230.671,492.166c4.295-0.255,9.142-1.148,11.565-4.72
						c0.978,1.828-0.638,3.997-2.381,5.146c-1.743,1.147-3.869,2.168-4.465,4.166c-5.825,1.403-12.373,2.68-17.518-0.425
						c-2.296-1.403-4.422-3.359-6.59-4.762C217.745,491.528,224.123,492.592,230.671,492.166z"/>
					<path id="XMLID_30_" fill="#826DAA" d="M317.412,535.451c3.402,9.1,6.123,17.009,12.203,24.832
						c3.02,3.869,6.463,7.526,8.504,11.99c2.084,4.55,2.594,9.61,3.316,14.585c3.105,20.452,11.48,40.819,27.129,54.341
						c15.646,13.521,39.416,18.623,57.656,8.887c3.316-1.786,6.506-4.082,8.504-7.313c4.082-6.506,2.424-14.968,0.043-22.281
						c-10.035-30.699-31.465-57.486-59.188-74.027l-15.307-21.388L317.412,535.451z"/>
					<g id="XMLID_117_">
						<path id="XMLID_122_" fill="#FFFFFF" d="M434.767,620.491c-10.035-30.699-31.465-57.486-59.188-74.027l-15.307-21.388
							l-0.383,0.086c2.082,4.337,4.123,8.716,6.037,13.181c1.955,4.465,3.869,9.354,2.721,14.117
							c-1.699,7.271-9.523,11.098-16.582,13.394c9.992,1.658,20.664-4.848,23.77-14.5c5.824,3.87,11.395,8.079,16.666,12.714
							c22.75,20.112,38.057,48.473,42.352,78.577C438.763,636.139,437.148,627.763,434.767,620.491z"/>
					</g>
					<path id="XMLID_28_" fill="#5C1945" d="M336.078,550.972c6.549,1.19,13.438-0.681,19.049-4.21
						c3.742-2.339,7.145-5.612,8.504-9.822c1.404-4.209,0.299-9.396-3.357-11.863c-1.361-0.935-2.977-1.402-4.594-1.828
						c-12.117-3.146-26.191-2.168-35.504,6.208c-1.742,1.573-3.359,3.742-2.764,5.995
						C319.113,541.872,329.785,549.823,336.078,550.972z"/>
					
						<linearGradient id="XMLID_52_" gradientUnits="userSpaceOnUse" x1="580.27" y1="259.0356" x2="673.1968" y2="259.0356" gradientTransform="matrix(0.4252 0 0 -0.4252 0.1206 570.0397)">
						<stop  offset="0.0054" style="stop-color:#F17E85"/>
						<stop  offset="1" style="stop-color:#FDB79E"/>
					</linearGradient>
					<path id="XMLID_22_" fill="url(#XMLID_52_)" d="M281.653,455.939c-3.785-2.382-8.462-2.722-12.926-2.722
						c-6.463,0-13.096,0.681-18.794,3.699c-1.318,0.723-2.679,1.701-3.019,3.146c-0.34,1.616,0.766,3.231,2.211,3.997
						c1.445,0.723,3.189,0.766,4.805,0.553c3.444-0.383,6.803-1.531,10.247-1.956c3.444-0.425,7.271,0,9.865,2.296
						c0.553,0.511,1.105,1.105,1.829,1.403c0.638,0.255,1.318,0.255,1.998,0.17C286.67,465.804,289.774,461.084,281.653,455.939z"/>
					
						<linearGradient id="XMLID_55_" gradientUnits="userSpaceOnUse" x1="594.7837" y1="154.7817" x2="831.561" y2="154.7817" gradientTransform="matrix(0.4252 0 0 -0.4252 0.1206 570.0397)">
						<stop  offset="0.0054" style="stop-color:#F17E85"/>
						<stop  offset="1" style="stop-color:#FDB79E"/>
					</linearGradient>
					<path id="XMLID_23_" fill="url(#XMLID_55_)" d="M258.267,472.734c-2.424,0.851-5.018,2.041-5.23,5.23
						c-0.127,1.743,0.638,3.443,1.914,4.677c3.486,3.444,8.504,3.401,12.586,5.527c4.762,2.467,7.568,7.526,9.864,12.374
						c2.594,5.442,5.018,11.013,8.589,15.859c3.572,4.848,8.546,8.972,14.414,10.205c4.125,0.851,8.504,0.255,12.502,1.53
						c7.822,2.552,11.691,11.311,18.367,16.115c4.338,3.104,9.908,4.295,15.18,3.529c4.934-0.723,8.164-5.57,7.016-10.417
						c-1.572-6.889-3.146-13.777-4.719-20.665c-2.338-10.162-4.678-20.409-8.93-29.935c-1.742-3.911-3.826-7.695-6.719-10.885
						c-6.293-6.974-15.604-10.247-24.49-13.267c-3.104-1.063-6.293-2.126-9.568-2.168c-3.783-0.043-7.44,1.233-10.969,2.381
						c-4.975,1.573-9.907,3.401-14.669,5.57C268.514,470.608,263.369,470.991,258.267,472.734z"/>
					
						<linearGradient id="XMLID_58_" gradientUnits="userSpaceOnUse" x1="625.8062" y1="202.5181" x2="662.8058" y2="189.5182" gradientTransform="matrix(0.4252 0 0 -0.4252 0.1206 570.0397)">
						<stop  offset="0.0054" style="stop-color:#F17E85"/>
						<stop  offset="1" style="stop-color:#FDB79E"/>
					</linearGradient>
					<path id="XMLID_24_" fill="url(#XMLID_58_)" d="M258.904,507.983c-0.255,3.614,0.681,8.249,4.252,8.887
						c3.146,0.553,5.613-2.551,6.931-5.442c4.167-9.142,4.763-20.154,11.48-27.596c4.337-4.805,10.8-7.483,14.627-12.713
						c1.658-2.254,2.721-5.272,1.744-7.866c-1.106-2.977-4.72-4.508-7.866-4.04c-8.376,1.275-16.583,14.627-20.877,21.133
						C263.709,488.595,259.67,497.991,258.904,507.983z"/>
					
						<linearGradient id="XMLID_61_" gradientUnits="userSpaceOnUse" x1="667.1431" y1="205.5005" x2="707.1432" y2="185.5004" gradientTransform="matrix(0.4252 0 0 -0.4252 0.1206 570.0397)">
						<stop  offset="0.0054" style="stop-color:#F17E85"/>
						<stop  offset="1" style="stop-color:#FDB79E"/>
					</linearGradient>
					<path id="XMLID_25_" fill="url(#XMLID_61_)" d="M280.93,512.831c0.255,2.381,0.766,5.018,2.679,6.505
						c2.892,2.297,7.483,0.468,9.439-2.636c1.956-3.146,1.999-7.016,2.083-10.715c0.255-10.801,1.658-22.748,9.737-29.935
						c2.084-1.828,4.508-3.273,6.463-5.272c1.955-1.998,3.359-4.805,2.721-7.526c-0.68-2.849-3.656-4.805-6.59-4.805
						c-9.652-0.127-17.391,14.117-20.835,21.473C281.78,490.083,279.697,501.605,280.93,512.831z"/>
					
						<linearGradient id="XMLID_63_" gradientUnits="userSpaceOnUse" x1="692.7427" y1="209.8228" x2="750.7762" y2="170.1156" gradientTransform="matrix(0.4252 0 0 -0.4252 0.1206 570.0397)">
						<stop  offset="0.0054" style="stop-color:#F17E85"/>
						<stop  offset="1" style="stop-color:#FDB79E"/>
					</linearGradient>
					<path id="XMLID_26_" fill="url(#XMLID_63_)" d="M296.492,485.15c-3.955,9.185-4.762,19.899-1.021,29.169
						c1.105,2.721,3.87,5.74,6.42,4.337c0.893-0.511,1.488-1.446,1.871-2.424c1.572-3.614,1.445-7.738,1.828-11.65
						c0.383-3.954,1.445-8.164,4.549-10.588c4.977-3.869,12.969-1.573,17.859-5.527c3.912-3.146,7.355-8.079,5.188-12.629
						c-3.146-6.59-14.031-15.731-21.217-10.8C305.251,469.631,299.681,477.794,296.492,485.15z"/>
					<path id="XMLID_36_" fill="#88D9CA" d="M68.712,257.073l110.467,58.04c4.72,2.466,7.569,7.526,7.186,12.883
						c-1.616,21.558-13.947,37.843-37.078,48.728c-6.378,3.019-14.031,0.51-17.476-5.698L68.712,257.073z"/>
					<ellipse id="XMLID_2_" fill="#FFFFFF" cx="198.526" cy="430.64" rx="1.573" ry="4.167"/>
					<ellipse id="XMLID_4_" fill="#FFFFFF" cx="241.386" cy="428.812" rx="1.573" ry="4.167"/>
					<path id="XMLID_3_" fill="#91CEC3" d="M212.813,539.321l29.722,31.337C242.492,570.658,214.556,552.842,212.813,539.321z"/>
					<path id="XMLID_32_" fill="#91CEC3" d="M212.813,539.321l-16.54,37.672C196.272,576.993,212.983,548.59,212.813,539.321z"/>
					<path id="XMLID_39_" fill="#9D1557" d="M228.928,476.179c-2.594-0.255-5.103-1.573-7.696-1.956
						c-4.507-0.723-8.929,1.36-13.479,1.53c-3.146,0.128-6.335-0.723-9.27-2.423c9.567,9.694,22.366,13.988,34.101,11.438
						c4.592-0.978,9.099-3.062,12.458-6.931c2.977-3.444,2.764-10.673-2.381-8.376C237.814,471.672,234.88,476.773,228.928,476.179z
						"/>
					<polygon id="XMLID_49_" fill="#483372" points="126.242,526.395 119.099,593.831 137.51,602.123 131.515,645.068 
						147.502,593.449 125.519,588.687 					"/>
					<line id="XMLID_53_" fill="none" x1="301.849" y1="644.431" x2="290.794" y2="644.601"/>
					<path id="XMLID_59_" fill="#ED3A4F" d="M316.945,448.583c43.668-12.118,89.164-21.94,126.709-47.282
						c-0.936,4.167-1.914,8.334-2.85,12.501c-0.297,1.36-0.637,2.721-1.402,3.869c-1.02,1.573-2.721,2.551-4.422,3.444
						c-7.994,4.167-16.541,7.101-25.129,9.949c-44.902,14.925-90.652,27.128-136.405,39.331
						c-10.587,2.807-21.175,5.655-31.805,8.462c-5.57,1.488-12.543,2.594-16.285-1.828c14.754-3.189,28.616-9.015,42.945-13.734
						C284.459,458.022,300.66,453.133,316.945,448.583z"/>
					<path id="XMLID_60_" fill="#ED3A4F" d="M443.654,398.962c0.34-1.361,0.596-2.807,0.043-4.082
						c-0.553-1.233-1.787-1.956-2.977-2.551c-4.592-2.253-9.822-3.231-14.924-2.806c-0.512,0.042-1.064,0.085-1.488,0.382
						c-0.852,0.553-1.064,1.658-1.318,2.594c-0.426,1.616-1.234,3.104-2.297,4.38c-1.232,1.445-2.977,2.934-2.721,4.847
						c0.17,1.148,1.02,2.041,1.871,2.849c2.678,2.509,5.57,4.805,8.588,6.846c2.211,1.531,5.018,2.934,7.484,1.871
						C441.826,410.74,442.292,404.788,443.654,398.962z"/>
					<g id="XMLID_120_">
						<path id="XMLID_124_" fill="#9E1F63" d="M437.658,405.127c-0.17-0.595-0.637-1.063-1.063-1.488
							c-1.955-1.914-3.912-3.785-5.91-5.698c-0.68-0.681-1.445-1.361-2.381-1.616c-1.148-0.298-2.381,0.127-3.486,0.595
							c-2.254,0.936-4.465,1.999-6.633,3.189c-0.213,0.51-0.299,1.021-0.256,1.616c0.17,1.148,1.021,2.041,1.871,2.849
							c2.678,2.509,5.57,4.805,8.59,6.846c2.082,1.403,4.635,2.764,6.973,2.041c0.766-2.168,1.402-4.379,2.041-6.505
							C437.658,406.403,437.83,405.766,437.658,405.127z"/>
					</g>
				</g>
			</g>
			<g id="XMLID_92_">
				<g id="XMLID_256_">
					<path id="XMLID_257_" fill="#FDB913" d="M136.447,504.497c5.698,1.743,11.225,4.933,15.732,8.802
						c3.529,3.062,4.294,6.25,4.252,10.672c-0.042,5.485-3.742,9.482-8.504,11.863c-3.104,1.531-12.161,2.211-12.246-3.104
						c-0.085-3.997,0.34-5.57,4.592-6.889c5.188-1.573,9.737-0.595,13.649,2.977c2.977,2.679,5.145,6.123,5.188,10.162
						c0.042,4.593-1.148,6.804-6.25,7.229c0.085,0-0.127-3.827,0-3.827c2.849-0.255,5.953-1.063,6.25-4.379c0,1.19,0,2.381,0,3.571
						c-0.085-4.847-5.017-9.566-8.972-11.735c-3.104-1.658-13.564-1.488-14.414,3.146c0-1.275,0-2.551,0-3.827
						c0.425,4.805,8.376,4.338,11.395,3.231c4.635-1.658,9.185-6.25,9.27-11.395c0,1.19,0,2.381,0,3.571
						c-0.723-8.419-12.926-14.031-19.984-16.157C136.064,508.196,136.744,504.582,136.447,504.497L136.447,504.497z"/>
				</g>
				<g id="XMLID_265_">
					<path id="XMLID_266_" fill="#FDB913" d="M488.087,483.662c5.697,1.743,11.225,4.933,15.732,8.802
						c3.529,3.062,4.295,6.25,4.252,10.673c-0.043,5.484-3.742,9.481-8.504,11.862c-3.104,1.531-12.16,2.211-12.246-3.104
						c-0.084-3.997,0.34-5.57,4.592-6.889c5.188-1.573,9.738-0.595,13.65,2.977c2.975,2.679,5.145,6.123,5.186,10.162
						c0.043,4.593-1.146,6.804-6.25,7.229c0.086,0-0.127-3.826,0-3.826c2.85-0.256,5.953-1.063,6.25-4.38c0,1.19,0,2.381,0,3.571
						c-0.084-4.847-5.016-9.566-8.971-11.735c-3.104-1.658-13.564-1.488-14.414,3.146c0-1.275,0-2.551,0-3.826
						c0.426,4.805,8.377,4.337,11.395,3.231c4.635-1.658,9.186-6.251,9.27-11.396c0,1.19,0,2.381,0,3.571
						c-0.723-8.419-12.926-14.031-19.984-16.157C487.705,487.361,488.384,483.747,488.087,483.662L488.087,483.662z"/>
				</g>
				<g id="XMLID_267_">
					<path id="XMLID_268_" fill="#FDB913" d="M279.824,337.818c5.698,1.743,11.225,4.933,15.732,8.802
						c3.529,3.062,4.294,6.25,4.251,10.672c-0.041,5.485-3.741,9.482-8.503,11.863c-3.104,1.531-12.161,2.211-12.246-3.104
						c-0.085-3.997,0.34-5.57,4.592-6.888c5.188-1.573,9.737-0.595,13.649,2.976c2.977,2.679,5.145,6.123,5.188,10.163
						c0.043,4.592-1.148,6.803-6.251,7.229c0.085,0-0.127-3.827,0-3.827c2.849-0.255,5.952-1.063,6.251-4.379
						c0,1.19,0,2.381,0,3.572c-0.086-4.847-5.018-9.567-8.972-11.736c-3.104-1.658-13.564-1.488-14.414,3.146
						c0-1.275,0-2.551,0-3.827c0.425,4.805,8.376,4.337,11.395,3.231c4.635-1.658,9.185-6.25,9.271-11.395c0,1.19,0,2.381,0,3.571
						c-0.725-8.419-12.927-14.031-19.985-16.157C279.441,341.56,280.165,337.946,279.824,337.818L279.824,337.818z"/>
				</g>
				<g id="XMLID_254_">
					<path id="XMLID_255_" fill="#0091B5" d="M106.13,404.873c4.592,1.871,8.844,4.635,11.991,8.504
						c2.253,2.764,2.424,5.655,2.381,9.014c-0.085,8.632-11.608,9.652-12.246,17.434c0-1.275,0-2.509,0-3.784
						c0.383,7.525,9.567,8.716,13.776,13.394c1.318,1.488,2.849,5.612,1.106,7.398c-1.786,1.786-4.295,2.551-6.081,4.55
						c-2.424,2.764-1.446,4.167-0.851,7.568c0.596,3.359,0.596,7.526-0.51,10.715c0.383-1.147-0.382-2.679,0-3.869
						c1.276-3.742-0.51-8.419-0.467-12.501c0.042-2.679,0.808-4.635,2.593-6.633c1.106-1.233,5.655-2.934,5.74-4.635
						c0,1.275,0,2.509,0,3.784c-1.445-5.188-8.376-6.676-12.118-9.694c-3.019-2.424-3.316-5.74-3.274-9.228
						c0.042-8.248,12.033-9.354,12.246-17.773c0,1.276,0,2.508,0,3.785c-0.68-7.016-8.419-11.778-14.372-14.202
						C105.662,408.529,106.555,405.042,106.13,404.873L106.13,404.873z"/>
				</g>
				<g id="XMLID_252_">
					<path id="XMLID_253_" fill="#FDB913" d="M308.482,282.84c4.594,1.871,8.846,4.635,11.992,8.504
						c2.252,2.764,2.424,5.655,2.381,9.014c-0.086,8.631-11.609,9.652-12.246,17.433c0-1.275,0-2.509,0-3.784
						c0.383,7.526,9.566,8.716,13.775,13.394c1.318,1.488,2.85,5.613,1.107,7.398c-1.787,1.786-4.295,2.551-6.082,4.55
						c-2.424,2.764-1.445,4.167-0.85,7.569c0.596,3.359,0.596,7.526-0.51,10.715c0.383-1.148-0.383-2.679,0-3.869
						c1.275-3.742-0.512-8.419-0.469-12.501c0.043-2.679,0.809-4.635,2.594-6.633c1.105-1.233,5.656-2.934,5.74-4.635
						c0,1.276,0,2.509,0,3.785c-1.445-5.188-8.377-6.676-12.117-9.695c-3.02-2.424-3.316-5.74-3.275-9.227
						c0.043-8.249,12.033-9.354,12.246-17.773c0,1.275,0,2.508,0,3.784c-0.68-7.016-8.418-11.778-14.371-14.202
						C307.972,286.497,308.865,283.01,308.482,282.84L308.482,282.84z"/>
				</g>
				<g id="XMLID_250_">
					<path id="XMLID_251_" fill="#ED3A4F" d="M247.594,284.158c9.397-2.721,14.074,9.185,9.907,16.2
						c-1.956,3.274-7.101,4.805-10.502,3.189c-1.701-0.808-1.191-3.997-1.021-5.485c0.212-1.743,2.764-2.721,4.167-3.019
						c2.254-0.425,4.72,0.425,6.761,1.318c3.402,1.488,7.569,4.677,7.654,8.717c0.042,3.486-0.042,6.038-2.636,8.674
						c-3.231,3.274-9.014,5.485-13.564,4.72c-0.212-0.042,0.17-3.657,0-3.699c3.742,0.595,7.611-0.808,10.843-2.636
						c1.701-0.978,3.146-2.296,4.294-3.869c0.723-1.021,0.553-2.892,0.936-0.936c-0.17-0.85-0.681-1.658-1.191-2.381
						c-2.041-3.104-5.868-5.06-9.354-5.995c-2.551-0.68-7.484-0.34-7.866,3.146c0-1.233,0-2.466,0-3.699
						c0.382,2.551,4.422,2.168,6.165,1.828c3.699-0.723,6.335-3.784,6.676-7.483c0,1.148,0,2.296,0,3.444
						c-0.085-5.91-5.613-9.907-11.225-8.292C247.892,287.772,247.254,284.243,247.594,284.158L247.594,284.158z"/>
				</g>
				<g id="XMLID_248_">
					<path id="XMLID_249_" fill="#0091B5" d="M486.642,357.888c-2.637-2.041-6.039-3.614-8.973-1.233s-2.041,5.74-0.51,8.589
						c1.402,2.551,3.02,6.548,6.207,7.186c1.404,0.255,2.893-0.978,3.488-2.126c0.211-0.723,0.254-0.595,0.127,0.425
						c-0.086-0.298-0.213-0.595-0.34-0.893c-0.299-0.595-0.809-1.021-1.318-1.446c-2.467-1.828-6.293,0.255-8.037,2.126
						c-2.125,2.253-2.891,5.655-3.188,8.674c-0.129,1.19,0.127,2.679,0.51,4.592c0.34,1.573,0.723,2.679,2.211,3.444
						c2.467,1.276,6.76,0.383,7.143-2.721c0,0.936,0,1.829,0,2.764c-0.254-2.806-5.953,0.851-6.846,1.616
						c-3.869,3.232-2.508,9.057,0.936,11.863c0.469,0.383-0.426,2.424,0,2.764c-6.166-4.975-4.592-19.771,4.848-19.984
						c1.318-0.042,1.063,1.488,1.063,2.381c0,1.701-0.127,3.104-1.871,3.997c-1.998,1.021-5.018,0.808-6.633-0.808
						c-1.318-1.361-1.359-4.592-1.488-6.42c-0.254-3.614-0.084-7.484,1.063-10.928c1.277-3.912,6.336-8.972,10.674-5.783
						c2.125,1.573,1.998,6.59,0.254,8.292c-4.293,4.252-8.928-5.868-9.906-8.802c-0.893-2.509-0.809-6.166-0.127-8.717
						c1.488-5.527,7.229-4.337,10.715-1.616C487.109,355.464,486.216,357.548,486.642,357.888L486.642,357.888z"/>
				</g>
				<g id="XMLID_261_">
					<path id="XMLID_262_" fill="#0091B5" d="M577.89,410.357c-2.637-2.041-6.039-3.614-8.973-1.233s-2.041,5.74-0.51,8.589
						c1.402,2.551,3.02,6.548,6.207,7.186c1.404,0.255,2.893-0.978,3.488-2.126c0.211-0.723,0.254-0.596,0.127,0.425
						c-0.086-0.297-0.213-0.595-0.34-0.893c-0.299-0.595-0.809-1.021-1.318-1.446c-2.467-1.828-6.293,0.255-8.037,2.126
						c-2.125,2.253-2.891,5.655-3.188,8.674c-0.129,1.19,0.127,2.679,0.51,4.592c0.34,1.573,0.723,2.679,2.211,3.444
						c2.465,1.275,6.76,0.383,7.143-2.722c0,0.936,0,1.829,0,2.765c-0.254-2.807-5.953,0.85-6.846,1.615
						c-3.869,3.231-2.508,9.057,0.936,11.863c0.469,0.383-0.426,2.424,0,2.764c-6.166-4.975-4.592-19.771,4.848-19.984
						c1.318-0.042,1.063,1.488,1.063,2.381c0,1.701-0.127,3.104-1.871,3.997c-1.998,1.021-5.018,0.808-6.633-0.808
						c-1.318-1.36-1.359-4.593-1.488-6.421c-0.254-3.614-0.084-7.483,1.063-10.928c1.277-3.912,6.336-8.971,10.674-5.782
						c2.125,1.573,1.998,6.591,0.254,8.291c-4.293,4.252-8.928-5.868-9.906-8.801c-0.893-2.509-0.809-6.166-0.127-8.717
						c1.488-5.527,7.229-4.337,10.715-1.616C578.357,407.934,577.464,410.018,577.89,410.357L577.89,410.357z"/>
				</g>
				<g id="XMLID_263_">
					<path id="XMLID_264_" fill="#0091B5" d="M433.832,474.01c-2.637-2.041-6.037-3.614-8.971-1.232
						c-2.936,2.381-2.041,5.74-0.512,8.589c1.404,2.551,3.02,6.548,6.209,7.186c1.402,0.255,2.891-0.978,3.486-2.126
						c0.213-0.723,0.256-0.595,0.127,0.426c-0.084-0.298-0.213-0.596-0.34-0.894c-0.297-0.595-0.809-1.021-1.318-1.445
						c-2.465-1.828-6.293,0.255-8.035,2.126c-2.127,2.253-2.893,5.655-3.189,8.674c-0.127,1.19,0.127,2.679,0.51,4.592
						c0.34,1.573,0.723,2.68,2.211,3.444c2.467,1.275,6.762,0.383,7.145-2.721c0,0.936,0,1.828,0,2.764
						c-0.256-2.807-5.953,0.851-6.846,1.615c-3.871,3.231-2.51,9.057,0.936,11.863c0.467,0.383-0.426,2.424,0,2.764
						c-6.166-4.975-4.594-19.771,4.846-19.984c1.318-0.042,1.064,1.488,1.064,2.381c0,1.701-0.129,3.104-1.871,3.997
						c-1.998,1.021-5.018,0.809-6.633-0.808c-1.318-1.36-1.361-4.592-1.488-6.421c-0.256-3.614-0.086-7.483,1.063-10.928
						c1.275-3.911,6.336-8.972,10.672-5.782c2.127,1.573,1.998,6.591,0.256,8.291c-4.295,4.252-8.93-5.867-9.908-8.759
						c-0.893-2.509-0.807-6.165-0.127-8.717c1.488-5.527,7.229-4.337,10.715-1.615C434.3,471.629,433.406,473.67,433.832,474.01
						L433.832,474.01z"/>
				</g>
				<g id="XMLID_246_">
					<path id="XMLID_247_" fill="#0091B5" d="M387.783,235.047c-2.637-2.041-6.037-3.614-8.973-1.233
						c-2.934,2.381-2.041,5.74-0.51,8.589c1.404,2.551,3.02,6.548,6.209,7.186c1.402,0.255,2.891-0.978,3.486-2.126
						c0.213-0.723,0.254-0.595,0.127,0.425c-0.084-0.298-0.213-0.595-0.34-0.893c-0.297-0.595-0.809-1.021-1.318-1.446
						c-2.467-1.828-6.293,0.255-8.037,2.126c-2.125,2.254-2.891,5.655-3.188,8.674c-0.129,1.19,0.127,2.679,0.51,4.592
						c0.34,1.573,0.723,2.679,2.211,3.444c2.467,1.276,6.76,0.383,7.143-2.721c0,0.936,0,1.829,0,2.764
						c-0.254-2.806-5.951,0.851-6.846,1.616c-3.869,3.231-2.508,9.057,0.936,11.863c0.469,0.383-0.424,2.424,0,2.764
						c-6.164-4.975-4.592-19.771,4.848-19.984c1.318-0.042,1.063,1.488,1.063,2.381c0,1.701-0.127,3.104-1.869,3.997
						c-2,1.021-5.018,0.808-6.635-0.808c-1.316-1.361-1.359-4.592-1.488-6.42c-0.254-3.614-0.084-7.484,1.064-10.928
						c1.275-3.912,6.334-8.972,10.672-5.783c2.127,1.573,1.998,6.59,0.256,8.292c-4.295,4.252-8.93-5.868-9.908-8.802
						c-0.893-2.509-0.807-6.166-0.127-8.717c1.488-5.527,7.229-4.337,10.715-1.616C388.25,232.624,387.357,234.708,387.783,235.047
						L387.783,235.047z"/>
				</g>
				<g id="XMLID_244_">
					<path id="XMLID_245_" fill="#0091B5" d="M33.931,241.511c-2.636-2.041-6.038-3.614-8.972-1.233
						c-2.934,2.381-2.041,5.74-0.51,8.589c1.403,2.551,3.019,6.548,6.208,7.186c1.403,0.255,2.892-0.978,3.487-2.126
						c0.212-0.723,0.255-0.595,0.127,0.425c-0.085-0.297-0.212-0.595-0.34-0.893c-0.298-0.596-0.808-1.021-1.318-1.446
						c-2.466-1.829-6.293,0.255-8.036,2.126c-2.126,2.253-2.892,5.655-3.189,8.674c-0.127,1.191,0.127,2.679,0.51,4.592
						c0.34,1.573,0.723,2.679,2.211,3.444c2.466,1.275,6.761,0.382,7.144-2.722c0,0.936,0,1.829,0,2.764
						c-0.255-2.807-5.953,0.85-6.846,1.616c-3.869,3.231-2.508,9.057,0.936,11.863c0.468,0.383-0.425,2.424,0,2.764
						c-6.165-4.975-4.592-19.772,4.848-19.984c1.318-0.043,1.063,1.488,1.063,2.381c0,1.701-0.128,3.104-1.871,3.997
						c-1.999,1.021-5.018,0.808-6.633-0.808c-1.318-1.36-1.36-4.592-1.488-6.42c-0.255-3.614-0.085-7.483,1.063-10.928
						c1.275-3.912,6.335-8.972,10.672-5.783c2.126,1.573,1.999,6.591,0.255,8.292c-4.294,4.252-8.929-5.868-9.907-8.802
						c-0.893-2.509-0.808-6.166-0.127-8.717c1.488-5.527,7.229-4.337,10.715-1.615C34.399,239.129,33.506,241.17,33.931,241.511
						L33.931,241.511z"/>
				</g>
				<g id="XMLID_242_">
					<path id="XMLID_243_" fill="#ED3A4F" d="M76.876,304.993c-3.104,1.786-4.464,5.612-3.742,9.057
						c0.808,3.912,4.125,6.846,4.72,10.672c0.298,1.914,0.51,3.827,0.681,5.74c0.212,2.721-1.531,3.359-3.487,4.72
						c-6.633,4.677-2.806,11.821-2.126,18.284c0.851,7.739-0.51,13.989-3.955,21.005c0.468-0.936-0.893-2.849-0.425-3.827
						c2.041-4.125,3.742-8.249,4.294-12.841c0.51-4.294-1.19-8.334-1.829-12.501c-0.893-5.527-0.893-10.757,4.209-14.329
						c2.551-1.786,3.529-2.466,1.871-5.527c-1.786-3.232-3.402-5.911-3.87-9.652c-0.638-4.975-1.913-11.65,3.274-14.627
						C76.026,301.421,77.344,304.738,76.876,304.993L76.876,304.993z"/>
				</g>
				<g id="XMLID_240_">
					<path id="XMLID_241_" fill="#ED3A4F" d="M548.763,236.451c5.74,1.19,11.311,5.4,15.859,8.887
						c4.295,3.274,7.271,6.42,7.271,11.863c0,5.272-0.426,8.631-4.549,12.416c-5.104,4.677-12.459,7.781-12.586,15.732
						c0-2.041,0-4.082,0-6.123c0.936,7.484,11.734,8.334,11.863,15.647c0.041,2.339,0.297,4.848,0,7.186
						c-0.723,5.953-7.824,7.058-8.08,13.521c0-2.126,0-4.294,0-6.42c0.639,4.72,3.02,8.206,5.953,11.82
						c1.105,1.361-1.063,5.272,0,6.548c-4.422-5.443-6.037-10.035-5.994-16.753c0-2.849,0.127-4.805,1.955-7.101
						c2.338-2.934,5.654-4.039,6.166-8.121c0,2.041,0,4.082,0,6.123c-0.086-4.932-5.146-7.058-8.504-9.737
						c-3.445-2.764-3.402-6.293-3.402-10.29c0-5.23,1.02-8.887,5.061-12.543c4.506-4.125,11.863-7.186,12.074-14.159
						c0,2.126,0,4.294,0,6.42c-0.637-5.102-5.91-8.546-9.736-11.353c-3.869-2.806-8.59-5.995-13.352-7.016
						C548.296,242.914,549.146,236.536,548.763,236.451L548.763,236.451z"/>
				</g>
				<g id="XMLID_238_">
					<path id="XMLID_239_" fill="#FDB913" d="M5.485,467.675c5.74,1.19,11.311,5.399,15.86,8.887
						c4.294,3.273,7.271,6.42,7.271,11.863c0,5.272-0.425,8.631-4.55,12.415c-5.103,4.678-12.458,7.781-12.586,15.732
						c0-2.041,0-4.082,0-6.122c0.936,7.483,11.735,8.333,11.863,15.646c0.043,2.339,0.298,4.848,0,7.187
						c-0.723,5.952-7.823,7.059-8.079,13.521c0-2.126,0-4.295,0-6.421c0.638,4.72,3.019,8.206,5.953,11.82
						c1.106,1.361-1.063,5.272,0,6.549c-4.422-5.443-6.038-10.035-5.995-16.753c0-2.85,0.127-4.805,1.956-7.102
						c2.338-2.934,5.655-4.039,6.165-8.121c0,2.041,0,4.082,0,6.123c-0.085-4.933-5.145-7.059-8.504-9.737
						c-3.444-2.764-3.401-6.293-3.401-10.29c0-5.229,1.021-8.887,5.06-12.543c4.507-4.125,11.863-7.186,12.076-14.159
						c0,2.126,0,4.294,0,6.421c-0.638-5.103-5.91-8.547-9.737-11.354c-3.869-2.806-8.589-5.995-13.352-7.016
						C5.018,474.095,5.868,467.76,5.485,467.675L5.485,467.675z"/>
				</g>
				<g id="XMLID_236_">
					<path id="XMLID_237_" fill="#ED3A4F" d="M128.198,241.255c-4.294,0.893-8.461,4.04-11.863,6.633
						c-3.232,2.466-5.443,4.805-5.443,8.887c0,3.954,0.298,6.463,3.402,9.312c3.827,3.529,9.354,5.826,9.439,11.778
						c0-1.531,0-3.062,0-4.592c-0.681,5.613-8.802,6.25-8.887,11.736c-0.042,1.743-0.213,3.656,0,5.4
						c0.553,4.464,5.868,5.315,6.038,10.12c0-1.616,0-3.231,0-4.805c-0.468,3.529-2.253,6.166-4.464,8.844
						c-0.808,1.021,0.765,3.954,0,4.89c3.316-4.082,4.507-7.526,4.507-12.543c0-2.126-0.085-3.571-1.488-5.315
						c-1.744-2.168-4.209-3.019-4.592-6.081c0,1.531,0,3.062,0,4.592c0.085-3.699,3.869-5.272,6.378-7.271
						c2.594-2.083,2.551-4.72,2.551-7.696c0-3.912-0.766-6.633-3.784-9.397c-3.359-3.104-8.887-5.4-9.057-10.63
						c0,1.616,0,3.231,0,4.805c0.468-3.827,4.422-6.421,7.313-8.504c2.892-2.083,6.421-4.507,9.992-5.23
						C128.538,246.103,127.9,241.34,128.198,241.255L128.198,241.255z"/>
				</g>
				<g id="XMLID_269_">
					<path id="XMLID_270_" fill="#ED3A4F" d="M43.243,340.37c-4.294,0.893-8.461,4.04-11.863,6.633
						c-3.231,2.466-5.443,4.805-5.443,8.887c0,3.954,0.298,6.463,3.402,9.312c3.827,3.529,9.354,5.825,9.439,11.778
						c0-1.531,0-3.062,0-4.592c-0.68,5.613-8.802,6.25-8.887,11.735c-0.042,1.744-0.212,3.657,0,5.4
						c0.553,4.464,5.868,5.315,6.038,10.12c0-1.616,0-3.231,0-4.805c-0.467,3.529-2.253,6.166-4.464,8.844
						c-0.808,1.021,0.765,3.954,0,4.89c3.316-4.082,4.507-7.526,4.507-12.543c0-2.126-0.085-3.572-1.488-5.315
						c-1.744-2.168-4.209-3.019-4.592-6.081c0,1.531,0,3.062,0,4.592c0.085-3.699,3.869-5.272,6.378-7.271
						c2.594-2.083,2.551-4.72,2.551-7.696c0-3.912-0.766-6.633-3.784-9.397c-3.359-3.104-8.887-5.4-9.057-10.63
						c0,1.616,0,3.232,0,4.805c0.468-3.827,4.422-6.421,7.313-8.504c2.892-2.083,6.421-4.507,9.992-5.23
						C43.583,345.217,42.945,340.455,43.243,340.37L43.243,340.37z"/>
				</g>
				<g id="XMLID_234_">
					<path id="XMLID_235_" fill="#0091B5" d="M362.695,333.566c-4.506,0.936-8.801,4.209-12.373,6.931
						c-3.359,2.551-5.654,5.018-5.654,9.27c0,4.082,0.34,6.718,3.572,9.694c3.996,3.657,9.736,6.038,9.822,12.246
						c0-1.573,0-3.189,0-4.762c-0.725,5.868-9.143,6.505-9.27,12.203c-0.043,1.828-0.213,3.784,0,5.613
						c0.553,4.634,6.123,5.527,6.293,10.545c0-1.658,0-3.359,0-5.018c-0.512,3.657-2.383,6.42-4.635,9.227
						c-0.852,1.063,0.807,4.125,0,5.102c3.443-4.252,4.719-7.823,4.676-13.054c0-2.211-0.084-3.742-1.529-5.527
						c-1.828-2.296-4.422-3.146-4.805-6.335c0,1.573,0,3.189,0,4.762c0.084-3.869,3.996-5.485,6.633-7.568
						c2.678-2.169,2.678-4.933,2.637-8.037c0-4.082-0.809-6.931-3.955-9.822c-3.529-3.232-9.27-5.613-9.439-11.056
						c0,1.659,0,3.359,0,5.018c0.51-3.997,4.592-6.676,7.611-8.844c3.018-2.168,6.717-4.677,10.418-5.485
						C363.078,338.584,362.398,333.609,362.695,333.566L362.695,333.566z"/>
				</g>
				<g id="XMLID_259_">
					<path id="XMLID_260_" fill="#0091B5" d="M487.449,230.243c4.508,0.936,8.803,4.209,12.375,6.931
						c3.357,2.551,5.654,5.017,5.654,9.269c0,4.082-0.34,6.718-3.572,9.695c-3.996,3.656-9.736,6.038-9.822,12.246
						c0-1.573,0-3.189,0-4.762c0.723,5.868,9.143,6.505,9.27,12.203c0.043,1.828,0.213,3.784,0,5.613
						c-0.553,4.635-6.123,5.527-6.293,10.545c0-1.658,0-3.359,0-5.018c0.512,3.657,2.381,6.42,4.635,9.227
						c0.852,1.063-0.807,4.125,0,5.103c-3.443-4.252-4.719-7.824-4.676-13.054c0-2.211,0.084-3.742,1.529-5.528
						c1.828-2.296,4.422-3.146,4.805-6.335c0,1.573,0,3.189,0,4.762c-0.084-3.869-3.996-5.485-6.633-7.568
						c-2.678-2.168-2.678-4.933-2.637-8.037c0-4.082,0.809-6.931,3.955-9.822c3.529-3.231,9.27-5.613,9.439-11.055
						c0,1.658,0,3.359,0,5.017c-0.51-3.997-4.592-6.675-7.611-8.844c-3.02-2.168-6.719-4.677-10.418-5.485
						C487.066,235.303,487.748,230.328,487.449,230.243L487.449,230.243z"/>
				</g>
				<g id="XMLID_183_">
					<g id="XMLID_232_">
						<path id="XMLID_233_" fill="#ED3A4F" d="M103.281,561.517c0,0.808,0.638,1.445,1.445,1.445c0.808,0,1.446-0.638,1.446-1.445
							c0-0.809-0.638-1.446-1.446-1.446C103.919,560.07,103.281,560.708,103.281,561.517z"/>
					</g>
					<g id="XMLID_230_">
						<circle id="XMLID_231_" fill="#ED3A4F" cx="45.921" cy="522.951" r="2.338"/>
					</g>
					<g id="XMLID_228_">
						<path id="XMLID_229_" fill="#ED3A4F" d="M94.225,480.601c0,1.403,1.148,2.552,2.551,2.552c1.403,0,2.551-1.148,2.551-2.552
							s-1.148-2.551-2.551-2.551C95.373,478.05,94.225,479.197,94.225,480.601z"/>
					</g>
					<g id="XMLID_226_">
						<circle id="XMLID_227_" fill="#ED3A4F" cx="85.04" cy="429.236" r="1.913"/>
					</g>
					<g id="XMLID_224_">
						<circle id="XMLID_225_" fill="#ED3A4F" cx="83.339" cy="417.458" r="2.424"/>
					</g>
					<g id="XMLID_222_">
						<circle id="XMLID_223_" fill="#ED3A4F" cx="86.061" cy="385.994" r="1.658"/>
					</g>
					<g id="XMLID_220_">
						<path id="XMLID_221_" fill="#ED3A4F" d="M60.719,296.702c0,0.893,0.723,1.616,1.616,1.616c0.893,0,1.616-0.723,1.616-1.616
							s-0.723-1.616-1.616-1.616C61.399,295.086,60.719,295.809,60.719,296.702z"/>
					</g>
					<g id="XMLID_218_">
						<circle id="XMLID_219_" fill="#ED3A4F" cx="119.566" cy="319.067" r="1.786"/>
					</g>
					<g id="XMLID_216_">
						<circle id="XMLID_217_" fill="#ED3A4F" cx="110.552" cy="254.096" r="1.233"/>
					</g>
					<g id="XMLID_214_">
						<path id="XMLID_215_" fill="#ED3A4F" d="M190.787,281.99c0,1.275,1.063,2.338,2.339,2.338c1.275,0,2.338-1.063,2.338-2.338
							c0-1.276-1.063-2.339-2.338-2.339C191.85,279.651,190.787,280.714,190.787,281.99z"/>
					</g>
					<g id="XMLID_212_">
						<circle id="XMLID_213_" fill="#ED3A4F" cx="212.94" cy="328.124" r="1.021"/>
					</g>
					<g id="XMLID_210_">
						<circle id="XMLID_211_" fill="#ED3A4F" cx="261.03" cy="244.53" r="1.403"/>
					</g>
					<g id="XMLID_208_">
						<path id="XMLID_209_" fill="#ED3A4F" d="M279.229,265.79c0,1.403,1.148,2.551,2.551,2.551c1.403,0,2.551-1.148,2.551-2.551
							s-1.148-2.551-2.551-2.551C280.334,263.238,279.229,264.386,279.229,265.79z"/>
					</g>
					<g id="XMLID_206_">
						<circle id="XMLID_207_" fill="#ED3A4F" cx="296.237" cy="256.308" r="1.956"/>
					</g>
					<g id="XMLID_204_">
						<circle id="XMLID_205_" fill="#ED3A4F" cx="361.037" cy="267.916" r="2.253"/>
					</g>
					<g id="XMLID_202_">
						<circle id="XMLID_203_" fill="#ED3A4F" cx="433.109" cy="234.112" r="2.636"/>
					</g>
					<g id="XMLID_200_">
						<circle id="XMLID_201_" fill="#ED3A4F" cx="455.687" cy="341.815" r="1.956"/>
					</g>
					<g id="XMLID_198_">
						<circle id="XMLID_199_" fill="#ED3A4F" cx="561.349" cy="346.322" r="1.105"/>
					</g>
					<g id="XMLID_196_">
						<circle id="XMLID_197_" fill="#ED3A4F" cx="544.597" cy="394.413" r="1.19"/>
					</g>
					<g id="XMLID_194_">
						<circle id="XMLID_195_" fill="#ED3A4F" cx="578.144" cy="405.17" r="1.063"/>
					</g>
					<g id="XMLID_192_">
						<circle id="XMLID_193_" fill="#ED3A4F" cx="525.166" cy="462.445" r="1.063"/>
					</g>
					<g id="XMLID_190_">
						<circle id="XMLID_191_" fill="#ED3A4F" cx="562.029" cy="530.689" r="1.275"/>
					</g>
					<g id="XMLID_188_">
						<circle id="XMLID_189_" fill="#ED3A4F" cx="590.646" cy="567.852" r="2.211"/>
					</g>
					<g id="XMLID_186_">
						<circle id="XMLID_187_" fill="#ED3A4F" cx="550.082" cy="601.315" r="1.021"/>
					</g>
					<g id="XMLID_184_">
						<circle id="XMLID_185_" fill="#ED3A4F" cx="536.39" cy="621.214" r="1.999"/>
					</g>
				</g>
				<g id="XMLID_604_">
					<g id="XMLID_181_">
						<circle id="XMLID_182_" fill="#0091B5" cx="21.388" cy="606.332" r="1.105"/>
					</g>
					<g id="XMLID_179_">
						<circle id="XMLID_180_" fill="#0091B5" cx="78.662" cy="539.831" r="1.701"/>
					</g>
					<g id="XMLID_177_">
						<circle id="XMLID_178_" fill="#0091B5" cx="9.567" cy="476.901" r="1.573"/>
					</g>
					<g id="XMLID_174_">
						<circle id="XMLID_175_" fill="#0091B5" cx="26.362" cy="452.155" r="1.063"/>
					</g>
					<g id="XMLID_172_">
						<circle id="XMLID_173_" fill="#0091B5" cx="87.591" cy="444.926" r="0.978"/>
					</g>
					<g id="XMLID_170_">
						<circle id="XMLID_171_" fill="#0091B5" cx="113.613" cy="394.115" r="2.679"/>
					</g>
					<g id="XMLID_168_">
						<path id="XMLID_169_" fill="#0091B5" d="M104.727,357.377c0,0.723,0.553,1.276,1.276,1.276s1.275-0.553,1.275-1.276
							c0-0.68-0.553-1.275-1.275-1.275C105.322,356.102,104.727,356.697,104.727,357.377z"/>
					</g>
					<g id="XMLID_166_">
						<circle id="XMLID_167_" fill="#0091B5" cx="120.289" cy="276.972" r="1.105"/>
					</g>
					<g id="XMLID_164_">
						<circle id="XMLID_165_" fill="#0091B5" cx="165.615" cy="246.826" r="1.446"/>
					</g>
					<g id="XMLID_162_">
						<circle id="XMLID_163_" fill="#0091B5" cx="221.062" cy="318.854" r="1.403"/>
					</g>
					<g id="XMLID_160_">
						<circle id="XMLID_161_" fill="#0091B5" cx="280.504" cy="225.608" r="1.106"/>
					</g>
					<g id="XMLID_158_">
						<circle id="XMLID_159_" fill="#0091B5" cx="341.435" cy="296.574" r="2.169"/>
					</g>
					<g id="XMLID_156_">
						<circle id="XMLID_157_" fill="#0091B5" cx="405.939" cy="287.56" r="2.466"/>
					</g>
					<g id="XMLID_636_">
						<circle id="XMLID_637_" fill="#0091B5" cx="448.162" cy="294.575" r="2.424"/>
					</g>
					<g id="XMLID_634_">
						<circle id="XMLID_635_" fill="#0091B5" cx="462.533" cy="314.815" r="2.126"/>
					</g>
					<g id="XMLID_632_">
						<circle id="XMLID_633_" fill="#0091B5" cx="496.888" cy="366.434" r="1.446"/>
					</g>
					<g id="XMLID_155_">
						<circle id="XMLID_631_" fill="#0091B5" cx="567.769" cy="399.005" r="2.806"/>
					</g>
					<g id="XMLID_153_">
						<circle id="XMLID_154_" fill="#0091B5" cx="568.238" cy="473.797" r="1.063"/>
					</g>
					<g id="XMLID_624_">
						<path id="XMLID_152_" fill="#0091B5" d="M542.087,499.947c0,1.19,0.979,2.169,2.168,2.169c1.191,0,2.17-0.979,2.17-2.169
							s-0.979-2.169-2.17-2.169C543.066,497.778,542.087,498.757,542.087,499.947z"/>
					</g>
					<g id="XMLID_619_">
						<circle id="XMLID_621_" fill="#0091B5" cx="594.982" cy="537.237" r="1.573"/>
					</g>
					<g id="XMLID_151_">
						<circle id="XMLID_618_" fill="#0091B5" cx="496.548" cy="575.08" r="1.786"/>
					</g>
					<g id="XMLID_615_">
						<circle id="XMLID_150_" fill="#0091B5" cx="554.164" cy="597.743" r="2.211"/>
					</g>
					<g id="XMLID_605_">
						<circle id="XMLID_149_" fill="#0091B5" cx="527.843" cy="620.534" r="1.999"/>
					</g>
				</g>
				<g id="XMLID_123_">
					<g id="XMLID_147_">
						<circle id="XMLID_148_" fill="#FDB913" cx="24.449" cy="608.756" r="2.168"/>
					</g>
					<g id="XMLID_145_">
						<circle id="XMLID_146_" fill="#FDB913" cx="27" cy="551.779" r="2.509"/>
					</g>
					<g id="XMLID_144_">
						<circle id="XMLID_599_" fill="#FDB913" cx="2.211" cy="499.012" r="1.573"/>
					</g>
					<g id="XMLID_588_">
						<circle id="XMLID_589_" fill="#FDB913" cx="24.704" cy="473.627" r="1.318"/>
					</g>
					<g id="XMLID_586_">
						<circle id="XMLID_587_" fill="#FDB913" cx="25.64" cy="431.15" r="2.296"/>
					</g>
					<g id="XMLID_143_">
						<circle id="XMLID_585_" fill="#FDB913" cx="60.336" cy="386.844" r="2.679"/>
					</g>
					<g id="XMLID_581_">
						<circle id="XMLID_142_" fill="#FDB913" cx="72.964" cy="336.5" r="2.551"/>
					</g>
					<g id="XMLID_141_">
						<circle id="XMLID_580_" fill="#FDB913" cx="130.154" cy="337.266" r="1.318"/>
					</g>
					<g id="XMLID_139_">
						<circle id="XMLID_140_" fill="#FDB913" cx="154.646" cy="269.744" r="2.466"/>
					</g>
					<g id="XMLID_137_">
						<circle id="XMLID_138_" fill="#FDB913" cx="201.333" cy="250.142" r="2.551"/>
					</g>
					<g id="XMLID_135_">
						<circle id="XMLID_136_" fill="#FDB913" cx="237.899" cy="249.675" r="1.956"/>
					</g>
					<g id="XMLID_133_">
						<path id="XMLID_134_" fill="#FDB913" d="M294.324,313.37c0,1.403,1.148,2.551,2.551,2.551c1.404,0,2.55-1.148,2.55-2.551
							c0-1.403-1.146-2.551-2.55-2.551C295.472,310.818,294.324,311.966,294.324,313.37z"/>
					</g>
					<g id="XMLID_558_">
						<circle id="XMLID_132_" fill="#FDB913" cx="353.724" cy="262.855" r="1.063"/>
					</g>
					<g id="XMLID_527_">
						<circle id="XMLID_528_" fill="#FDB913" cx="401.218" cy="306.141" r="1.914"/>
					</g>
					<g id="XMLID_525_">
						<path id="XMLID_526_" fill="#FDB913" d="M444.419,304.568c0,0.765,0.637,1.403,1.402,1.403s1.404-0.638,1.404-1.403
							c0-0.766-0.639-1.403-1.404-1.403S444.419,303.802,444.419,304.568z"/>
					</g>
					<g id="XMLID_522_">
						<circle id="XMLID_523_" fill="#FDB913" cx="507.05" cy="331.823" r="0.978"/>
					</g>
					<g id="XMLID_518_">
						<path id="XMLID_521_" fill="#FDB913" d="M540.556,373.918c0,1.361,1.105,2.466,2.467,2.466s2.467-1.106,2.467-2.466
							c0-1.361-1.105-2.466-2.467-2.466S540.556,372.557,540.556,373.918z"/>
					</g>
					<g id="XMLID_515_">
						<path id="XMLID_516_" fill="#FDB913" d="M546.468,417.161c0,1.488,1.232,2.721,2.721,2.721s2.721-1.233,2.721-2.721
							c0-1.488-1.232-2.721-2.721-2.721C547.701,414.482,546.468,415.673,546.468,417.161z"/>
					</g>
					<g id="XMLID_513_">
						<path id="XMLID_514_" fill="#FDB913" d="M569.599,466.399c1.033,0,1.869,0.837,1.869,1.87s-0.836,1.871-1.869,1.871
							c-1.035,0-1.871-0.838-1.871-1.871S568.564,466.399,569.599,466.399z"/>
					</g>
					<g id="XMLID_509_">
						<circle id="XMLID_512_" fill="#FDB913" cx="522.996" cy="522.908" r="1.999"/>
					</g>
					<g id="XMLID_496_">
						<circle id="XMLID_498_" fill="#FDB913" cx="566.027" cy="550.716" r="1.148"/>
					</g>
					<g id="XMLID_131_">
						<circle id="XMLID_176_" fill="#FDB913" cx="495.273" cy="571.083" r="1.148"/>
					</g>
					<g id="XMLID_129_">
						<circle id="XMLID_130_" fill="#FDB913" cx="553.568" cy="588.389" r="1.828"/>
					</g>
					<g id="XMLID_125_">
						<circle id="XMLID_127_" fill="#FDB913" cx="548.296" cy="622.192" r="1.063"/>
					</g>
				</g>
			</g>
		</g>
	</g>
</g>
</svg>
